<svg
          id="case_fan"
          data-name="Case fan"
          class="item"
          xmlns="http://www.w3.org/2000/svg"
          viewBox="0 0 1200 1200"
        >
          <defs>
            <style>
              .cls-1 {
                fill: #171523;
              }

              .cls-1,
              .cls-2,
              .cls-3 {
                stroke-width: 0px;
              }

              .cls-2 {
                fill: #fff;
              }

              .cls-3 {
                fill: #fdae37;
              }
            </style>
          </defs>
          <rect
            class="cls-1"
            x="49.75"
            y="49.75"
            width="1100.5"
            height="1100.5"
            rx="42.39"
            ry="42.39"
          />
          <circle class="cls-2" cx="606.16" cy="591.85" r="523.67" />
          <path
            id="ventilador"
            class="cls-1"
            d="M1093.5,547.78c-1.78-21.37-5.23-38.89-8.02-50.82-5.27-11.3-11.67-16.86-18.03-19.29-30.39-11.63-63.73,45.2-162.13,79.38-31.85,11.07-79.25,24.27-148.41,12.7-1.8-7.72-3.61-15.43-5.41-23.15,18.67-7.02,44.99-18.04,74.93-34.6,70.84-39.16,111.08-81.18,126.09-97.82,41.15-45.63,48.62-66.41,49.14-82.29.15-4.61.47-15.08-2.68-27.09-8.38-20.39-24.89-52.95-56.51-83.54-43.82-42.4-92.14-57.29-115.08-62.77-9.01-.71-14.97,1.25-18.23,3.08-28.37,15.94-5.95,77.9-42.53,175.44-11.84,31.57-31.97,76.47-85.06,122.28-7.09-3.54-14.18-7.09-21.27-10.63,6.53-18.85,14.87-46.13,21.27-79.75,15.13-79.51,8.53-137.32,5.32-159.49-8.81-60.81-20.02-79.84-31.9-90.38-3.34-2.97-10.84-9.56-21.55-14.75-11.33-.77-22.75-1.2-34.27-1.2-54.07,0-106.11,8.67-154.84,24.63-3.88,4.12-6.3,8.21-7.73,12.12-12.57,34.43,49.3,60.72,86.71,160.34,12.11,32.25,26.59,80.77,14.18,156.66-8.39,3.2-16.77,6.4-25.16,9.6-7.68-18.81-19.73-45.15-37.8-74.45-42.76-69.31-88.54-105.43-106.66-118.74-49.71-36.49-72.32-41.06-89.58-38.99-3.72.44-10.94,1.32-19.75,3.92-53.34,50.21-95.58,112.07-122.66,181.52.78,8.56,3.21,14.79,6.43,19.35,21.14,29.94,77.99-5.94,181.18,20.06,33.4,8.41,81.53,24.15,136.84,77.58-2.15,8.72-4.29,17.43-6.43,26.15-19.84-4.4-48.34-9.5-82.72-11.34-81.32-4.34-137.09,12.72-158.35,20.04-58.31,20.07-74.94,36.06-83.08,51.42-5.07,9.58-11.56,23.49-12.87,52.29-2.69,59.2,17.66,110.7,37.07,146.14,14.08,17.17,26.04,23.11,35.73,24.02,36.49,3.41,46.2-63.11,133.04-124.61,28.11-19.91,71.36-46.24,147.92-53.53,5.23,7.3,10.45,14.59,15.68,21.89-16.24,12.21-38.65,30.55-62.4,55.48-56.17,58.97-79.47,112.43-87.73,133.34-22.66,57.35-21.33,80.38-14.95,96.55,2.81,7.11,11.01,27.89,31.36,43.78,10.99,8.58,20.78,13.53,26.47,15.98,59.9,25.82,152.12,65.58,178.34,35.61,21.48-24.56-23.82-70.45-22.27-180.92.48-34.44,4.7-84.91,43.93-151.04,8.98.08,17.95.15,26.93.23.29,20.32,1.9,49.23,8.05,83.11,14.53,80.13,43.99,130.46,56.02,149.46,32.98,52.11,52.37,64.61,69.19,68.98,19.17,4.98,34.88,3.5,53.85.46,56.71-9.08,95.77-39.76,109.26-51.26,19.69-16.78,83.18-70.89,69.64-108.65-11.92-33.24-71.64-19.22-163.39-76.76-28.57-17.92-68.53-46.62-102.8-107.8,4.89-6.24,9.78-12.47,14.67-18.71,17.16,10.16,42.23,23.79,73.88,36.78,74.88,30.73,132.84,35.82,155.21,37.1,48.77,2.81,73.26,1.72,94.93-13.18,61.34-42.17,51.74-157.24,49.01-189.93Z"
          />
          <circle
            id="rodona"
            class="cls-3"
            cx="602.66"
            cy="589.37"
            r="148.86"
          />
          <circle id="R.2" class="cls-3" cx="1086.54" cy="108.45" r="34.26" />
          <circle id="R.1" class="cls-3" cx="116.87" cy="108.45" r="34.26" />
          <circle id="R.3" class="cls-3" cx="116.87" cy="1085.81" r="34.26" />
          <circle id="R.4" class="cls-3" cx="1086.54" cy="1085.81" r="34.26" />
        </svg>