 <svg
          id="cpu_cooler"
          class="item"
          data-name="Cpu cooler"
          xmlns="http://www.w3.org/2000/svg"
          viewBox="0 0 1041 958"
        >
          <defs>
            <style>
              .cls-1 {
                fill: #171523;
              }

              .cls-1,
              .cls-2,
              .cls-3 {
                stroke-width: 0px;
              }

              .cls-14 {
                fill: none;
                stroke: #fdae37;
                stroke-miterlimit: 10;
                stroke-width: 61.27px;
              }

              .cls-2 {
                fill: #fff;
              }

              .cls-3 {
                fill: #fdae37;
              }
            </style>
          </defs>
          <rect
            class="cls-1"
            x="84.31"
            y="41.89"
            width="873.53"
            height="873.53"
            rx="24.51"
            ry="24.51"
          />
          <circle class="cls-2" cx="525.97" cy="472.18" r="415.67" />
          <path
            id="ventilador_cooler"
            class="cls-1"
            d="M912.79,437.2c-1.42-16.96-4.15-30.87-6.36-40.34-4.18-8.97-9.26-13.38-14.31-15.31-24.12-9.23-50.59,35.88-128.69,63.01-25.28,8.78-62.91,19.27-117.8,10.08-1.43-6.13-2.86-12.25-4.29-18.38,14.82-5.57,35.71-14.32,59.48-27.46,56.23-31.09,88.17-64.44,100.08-77.64,32.66-36.22,38.6-52.71,39.01-65.32.12-3.66.37-11.97-2.13-21.51-6.65-16.18-19.76-42.03-44.86-66.31-34.79-33.66-73.13-45.48-91.35-49.82-7.15-.56-11.88.99-14.47,2.45-22.52,12.66-4.73,61.84-33.76,139.26-9.4,25.06-25.37,60.7-67.52,97.06-5.63-2.81-11.25-5.63-16.88-8.44,5.18-14.96,11.8-36.62,16.88-63.3,12.01-63.11,6.77-109,4.22-126.6-6.99-48.27-15.89-63.37-25.32-71.74-2.65-2.35-8.6-7.59-17.11-11.71-8.99-.61-18.06-.95-27.2-.95-42.92,0-84.22,6.88-122.9,19.55-3.08,3.27-5,6.51-6.14,9.62-9.98,27.33,39.13,48.2,68.83,127.27,9.61,25.6,21.1,64.11,11.25,124.35-6.66,2.54-13.31,5.08-19.97,7.62-6.1-14.93-15.66-35.84-30-59.09-33.94-55.02-70.28-83.69-84.67-94.25-39.46-28.97-57.41-32.59-71.11-30.95-2.95.35-8.69,1.05-15.68,3.11-42.34,39.86-75.87,88.95-97.36,144.08.62,6.79,2.55,11.74,5.1,15.36,16.78,23.77,61.9-4.71,143.81,15.92,26.52,6.68,64.72,19.17,108.62,61.58-1.7,6.92-3.41,13.84-5.11,20.75-15.74-3.49-38.37-7.54-65.66-9-64.55-3.44-108.82,10.1-125.69,15.91-46.28,15.93-59.49,28.62-65.94,40.81-4.03,7.6-9.17,18.65-10.22,41.51-2.14,46.99,14.02,87.87,29.42,116,11.18,13.63,20.67,18.34,28.36,19.06,28.97,2.71,36.67-50.1,105.6-98.91,22.31-15.8,56.65-36.7,117.41-42.49,4.15,5.79,8.3,11.58,12.45,17.38-12.89,9.69-30.68,24.25-49.53,44.04-44.59,46.81-63.08,89.24-69.64,105.84-17.99,45.52-16.93,63.8-11.87,76.64,2.23,5.64,8.74,22.14,24.9,34.75,8.72,6.81,16.5,10.74,21.01,12.69,47.55,20.5,120.75,52.05,141.56,28.26,17.05-19.49-18.91-55.92-17.68-143.61.38-27.34,3.73-67.39,34.87-119.89,7.12.06,14.25.12,21.37.18.23,16.13,1.51,39.08,6.39,65.97,11.54,63.6,34.92,103.55,44.46,118.64,26.18,41.36,41.57,51.28,54.92,54.75,15.22,3.96,27.69,2.78,42.75.37,45.01-7.21,76.02-31.56,86.72-40.69,15.63-13.32,66.02-56.27,55.27-86.24-9.46-26.39-56.87-15.25-129.69-60.93-22.68-14.22-54.4-37-81.6-85.57,3.88-4.95,7.76-9.9,11.65-14.85,13.62,8.07,33.52,18.89,58.64,29.2,59.44,24.39,105.44,28.43,123.2,29.45,38.72,2.23,58.15,1.36,75.35-10.46,48.69-33.47,41.07-124.81,38.9-150.76Z"
          />
          <circle
            id="rodona_cooler"
            class="cls-3"
            cx="523.18"
            cy="470.21"
            r="118.16"
          />
          <circle class="cls-14" cx="521.07" cy="478.65" r="333.81" />
          <circle class="cls-14" cx="521.07" cy="478.65" r="229.32" />
          <polygon
            class="cls-1"
            points="832.55 43.14 856.31 23.13 947.61 23.13 977 52.52 977 143.19 957.61 169.46 832.55 43.14"
          />
          <polygon
            class="cls-1"
            points="85.26 167.58 65.25 143.82 65.25 52.52 94.64 23.13 185.32 23.13 211.58 42.51 85.26 167.58"
          />
          <polygon
            class="cls-1"
            points="208.45 913.61 184.69 933.62 93.39 933.62 64 904.23 64 813.56 83.39 787.29 208.45 913.61"
          />
          <polygon
            class="cls-1"
            points="954.49 790.42 974.5 814.18 974.5 905.48 945.11 934.87 854.43 934.87 828.17 915.49 954.49 790.42"
          />
          <circle
            id="R.2_cooler"
            class="cls-2"
            cx="907.27"
            cy="84.51"
            r="27.19"
          />
          <circle
            id="R.1_cooler"
            class="cls-2"
            cx="137.58"
            cy="84.51"
            r="27.19"
          />
          <circle
            id="R.3_cooler"
            class="cls-2"
            cx="137.58"
            cy="860.3"
            r="27.19"
          />
          <circle
            id="R.4_cooler"
            class="cls-2"
            cx="907.27"
            cy="860.3"
            r="27.19"
          />
        </svg>