<?xml version="1.0" encoding="UTF-8"?>
<svg id="disk" data-name="Disk" xmlns="http://www.w3.org/2000/svg" viewBox="0 0 1200 958">
  <defs>
    <style>
      .cls-1 {
        fill: #171523;
      }

      .cls-1, .cls-2 {
        stroke-width: 0px;
      }

      .cls-2 {
        fill: #fdae37;
      }
    </style>
  </defs>
  <rect class="cls-2" x="213.43" y="89" width="772.73" height="621.13"/>
  <path class="cls-1" d="M599.8,101.11c-164.5,0-297.85,133.35-297.85,297.85s133.35,297.85,297.85,297.85,297.85-133.35,297.85-297.85S764.3,101.11,599.8,101.11ZM599.8,476.91c-43.05,0-77.95-34.9-77.95-77.95s34.9-77.95,77.95-77.95,77.95,34.9,77.95,77.95-34.9,77.95-77.95,77.95Z"/>
  <path class="cls-1" d="M181.02,709.12h837.96c14.76,0,26.73,11.98,26.73,26.73v133.14H154.29v-133.14c0-14.76,11.98-26.73,26.73-26.73Z"/>
</svg>