<svg
          id="external_hard_drive"
          class="item"
          data-name="External hard drive"
          xmlns="http://www.w3.org/2000/svg"
          viewBox="0 0 1106 1266"
        >
          <defs>
            <style>
              .cls-19,
              .cls-29 {
                fill: #171523;
              }

              .cls-19,
              .cls-29,
              .cls-39,
              .cls-49 {
                stroke-width: 0px;
              }

              .cls-59 {
                fill: none;
                stroke: #fdae37;
                stroke-miterlimit: 10;
                stroke-width: 25px;
              }

              .cls-29 {
                opacity: 0.97;
              }

              .cls-39 {
                fill: #fff;
              }

              .cls-49 {
                fill: #fdae37;
              }
            </style>
          </defs>
          <rect
            class="cls-29"
            x="163.89"
            y="259.52"
            width="577.96"
            height="901.33"
            rx="48.18"
            ry="48.18"
          />
          <rect
            class="cls-49"
            x="197.11"
            y="1055.05"
            width="522.08"
            height="82.22"
            rx="31.71"
            ry="31.71"
          />
          <rect
            class="cls-39"
            x="243.41"
            y="1092.57"
            width="96.59"
            height="13.57"
            rx="6.79"
            ry="6.79"
          />
          <rect
            class="cls-39"
            x="387.9"
            y="1092.57"
            width="96.59"
            height="13.57"
            rx="6.79"
            ry="6.79"
          />
          <circle class="cls-39" cx="596.65" cy="1098.56" r="14.77" />
          <circle class="cls-39" cx="655.72" cy="1098.56" r="14.77" />
          <path
            class="cls-19"
            d="M415.04,192.11h71.05c20.71,0,37.52,16.81,37.52,37.52v35.13h-146.09v-35.13c0-20.71,16.81-37.52,37.52-37.52Z"
          />
          <path
            class="cls-59"
            d="M451.36,192.94v-56.23c0-43.47,35.24-78.71,78.71-78.71h301.6c43.47,0,78.71,35.24,78.71,78.71v375.91"
          />
          <path
            class="cls-19"
            d="M868.96,513.02h82.02c17.46,0,31.63,14.17,31.63,31.63v124.03h-145.29v-124.03c0-17.46,14.17-31.63,31.63-31.63Z"
          />
          <rect
            class="cls-19"
            x="858.09"
            y="668.69"
            width="102.18"
            height="75.84"
          />
          <rect
            class="cls-39"
            x="892.94"
            y="688.64"
            width="11.96"
            height="24.75"
          />
          <rect
            class="cls-39"
            x="919.84"
            y="688.64"
            width="11.96"
            height="24.75"
          />
          <path
            id="light_external1"
            class="cls-39"
            d="M648.5,1005h-386c-6.9,0-12.5-5.6-12.5-12.5s5.6-12.5,12.5-12.5h386c6.9,0,12.5,5.6,12.5,12.5s-5.6,12.5-12.5,12.5Z"
          />
          <path
            id="light_external2"
            class="cls-39"
            d="M617.62,946h-324.24c-5.8,0-10.5-5.6-10.5-12.5s4.7-12.5,10.5-12.5h324.24c5.8,0,10.5,5.6,10.5,12.5s-4.7,12.5-10.5,12.5Z"
          />
          <path
            id="light_external3"
            class="cls-39"
            d="M579.02,887h-247.04c-4.42,0-8-5.6-8-12.5s3.58-12.5,8-12.5h247.04c4.42,0,8,5.6,8,12.5s-3.58,12.5-8,12.5Z"
          />
        </svg>