<svg
          id="graphic_card"
          class="item"
          data-name="Graphic card"
          xmlns="http://www.w3.org/2000/svg"
          viewBox="0 0 1200 717"
        >
          <defs>
            <style>
              .cls-1 {
                fill: #171523;
              }

              .cls-1,
              .cls-2,
              .cls-3 {
                stroke-width: 0px;
              }

              .cls-44 {
                fill: none;
                stroke: #fdae37;
                stroke-miterlimit: 10;
                stroke-width: 25px;
              }

              .cls-2 {
                fill: #fff;
              }

              .cls-3 {
                fill: #fdae37;
              }
            </style>
          </defs>
          <g>
            <rect
              class="cls-44"
              x="378.29"
              y="71.28"
              width="261.35"
              height="127.28"
              rx="63.64"
              ry="63.64"
            />
            <rect
              class="cls-44"
              x="766.91"
              y="71.28"
              width="261.35"
              height="127.28"
              rx="63.64"
              ry="63.64"
            />
          </g>
          <polygon
            class="cls-1"
            points="1111.78 92.3 825.33 92.3 808.16 109.47 587.54 109.47 566.5 88.43 189.85 88.43 189.85 147.3 167.74 147.3 167.74 88.43 125.47 88.43 106.76 107.13 106.76 131.72 87.94 131.72 89.54 117.86 27.17 117.86 27.17 121.51 84.75 121.51 84.75 583.07 105.74 583.07 105.74 624.57 182.58 624.57 182.58 575.89 271.08 575.89 271.08 619.38 309.26 619.38 309.26 579.48 327.74 579.48 327.74 645.72 381.94 645.72 381.94 601.83 395.57 601.83 395.57 645.72 741.91 645.72 741.91 601.03 757.87 601.03 757.87 627.36 813.73 627.36 813.73 608.21 787.79 608.21 787.79 579.48 1105 579.48 1172.83 534.8 1172.83 135.87 1111.78 92.3"
          />
          <circle class="cls-2" cx="439.56" cy="343.82" r="212.27" />
          <g>
            <g id="ventilador1_graphic">
              <path
                class="cls-1"
                d="M408.57,469.48c-6.17-27.18-3.57-50.17-.9-63.86,7.36,1.45,14.72,2.9,22.08,4.35-.85,12.16-.4,28.67,5.1,47.01,12.73,42.45,44.03,66.62,58.89,76.32,21.39-6.15,41.28-15.82,59.01-28.35-16.08-3.78-44.4-13.1-70.48-37.31-20.42-18.97-31.24-39.42-36.75-52.23,6.9-2.95,13.79-5.9,20.69-8.86,6.15,10.53,15.83,23.9,30.72,35.95,34.47,27.9,74,30.19,91.71,29.82,13.97-16.23,25.33-34.77,33.45-54.96-15.63,5.54-44.32,12.91-79.1,6.75-27.45-4.86-47.63-16.18-59.2-23.95,4.19-6.22,8.39-12.44,12.58-18.66,10.88,5.51,26.26,11.49,45.3,13.54,43.67,4.7,77.86-14.38,92.78-24.39,1.19-8.77,1.82-17.73,1.82-26.83,0-12.09-1.09-23.92-3.18-35.41-10.05,13.2-29.99,35.08-62.45,48.99-25.62,10.98-48.7,12.57-62.65,12.42.1-7.5.19-15,.29-22.51,12.12-1.36,28.27-4.78,45.31-13.5,39.96-20.44,58.03-56.25,64.68-72.33-8.92-19.38-20.9-37.07-35.31-52.44-1.21,16.21-5.97,46.32-26.55,76.42-15.73,23.01-34.36,36.74-46.21,44.09-3.94-6.38-7.88-12.77-11.83-19.15,9.5-7.65,21.29-19.2,31-35.7,23.45-39.86,18.54-81.02,15.53-97.24-16.44-10.47-34.53-18.57-53.8-23.83,6.49,14.41,17.19,43.95,12.97,81.39-3.12,27.7-13.15,48.55-20.18,60.59-6.47-3.79-12.94-7.59-19.42-11.38,4.81-11.2,9.82-26.93,10.67-46.06,1.96-44.21-19.57-77.31-30.42-91.39-1.86-.05-3.73-.08-5.61-.08-19.88,0-39.08,2.96-57.17,8.43,13.56,8.7,38.05,27.36,54.8,60.19,12.66,24.83,15.79,47.76,16.56,61.68-7.49.4-14.98.8-22.47,1.21-2.16-12-6.65-27.89-16.49-44.32-22.81-38.09-59.2-53.82-75.94-59.55-19.72,11.74-37.21,26.82-51.7,44.46,15.29-.68,47.58.1,81.63,18.7,24.46,13.36,39.98,30.53,48.47,41.59-5.96,4.56-11.92,9.12-17.88,13.67-8.55-8.69-21.22-19.27-38.61-27.29-43.31-19.96-84.99-9.79-99.71-5.35-9.47,20.17-15.63,42.21-17.76,65.41,12.38-10.15,40.62-30.2,78.83-33.59,22.93-2.03,48.48,6.16,60.59,9.96-.55,6.87-7.75,9.73-8.3,16.6-11.37-1.85-25.92-2.74-42.33,0-46.02,7.68-76.35,40.07-87.58,53.85,3.28,22.59,10.39,43.94,20.65,63.37,7.5-20.52,30.99-74.17,80.22-87.35,5.99-1.6,12.76-2.71,20.33-2.91,2.95,6.23,5.91,12.46,8.86,18.69-10.78,4.09-23.83,10.59-36.67,21.15-34.9,28.7-45.02,68.27-48.16,86.58,14.35,16.77,31.46,31.1,50.63,42.29-3.05-16.69-5.41-44.84,5.07-76.69,8.72-26.47,22.8-44.84,32.14-55.19,5.56,5.04,11.12,10.07,16.68,15.11-7,9.98-15.12,24.36-19.86,42.91-10.32,40.39,1.79,75.39,9.7,92.69,17.6,5.15,36.22,7.93,55.49,7.93,2.45,0,4.89-.06,7.32-.15-11.07-11.94-29.83-35.87-37.89-71.33Z"
              />
              <circle class="cls-3" cx="440.39" cy="343.82" r="75.53" />
            </g>
            <circle class="cls-2" cx="919.96" cy="343.82" r="212.27" />
            <g id="ventilador2_graphic">
              <path
                class="cls-1"
                d="M888.97,469.48c-6.17-27.18-3.57-50.17-.9-63.86,7.36,1.45,14.72,2.9,22.08,4.35-.85,12.16-.4,28.67,5.1,47.01,12.73,42.45,44.03,66.62,58.89,76.32,21.39-6.15,41.28-15.82,59.01-28.35-16.08-3.78-44.4-13.1-70.48-37.31-20.42-18.97-31.24-39.42-36.75-52.23,6.9-2.95,13.79-5.9,20.69-8.86,6.15,10.53,15.83,23.9,30.72,35.95,34.47,27.9,74,30.19,91.71,29.82,13.97-16.23,25.33-34.77,33.45-54.96-15.63,5.54-44.32,12.91-79.1,6.75-27.45-4.86-47.63-16.18-59.2-23.95,4.19-6.22,8.39-12.44,12.58-18.66,10.88,5.51,26.26,11.49,45.3,13.54,43.67,4.7,77.86-14.38,92.78-24.39,1.19-8.77,1.82-17.73,1.82-26.83,0-12.09-1.09-23.92-3.18-35.41-10.05,13.2-29.99,35.08-62.45,48.99-25.62,10.98-48.7,12.57-62.65,12.42.1-7.5.19-15,.29-22.51,12.12-1.36,28.27-4.78,45.31-13.5,39.96-20.44,58.03-56.25,64.68-72.33-8.92-19.38-20.9-37.07-35.31-52.44-1.21,16.21-5.97,46.32-26.55,76.42-15.73,23.01-34.36,36.74-46.21,44.09-3.94-6.38-7.88-12.77-11.83-19.15,9.5-7.65,21.29-19.2,31-35.7,23.45-39.86,18.54-81.02,15.53-97.24-16.44-10.47-34.53-18.57-53.8-23.83,6.49,14.41,17.19,43.95,12.97,81.39-3.12,27.7-13.15,48.55-20.18,60.59-6.47-3.79-12.94-7.59-19.42-11.38,4.81-11.2,9.82-26.93,10.67-46.06,1.96-44.21-19.57-77.31-30.42-91.39-1.86-.05-3.73-.08-5.61-.08-19.88,0-39.08,2.96-57.17,8.43,13.56,8.7,38.05,27.36,54.8,60.19,12.66,24.83,15.79,47.76,16.56,61.68-7.49.4-14.98.8-22.47,1.21-2.16-12-6.65-27.89-16.49-44.32-22.81-38.09-59.2-53.82-75.94-59.55-19.72,11.74-37.21,26.82-51.7,44.46,15.29-.68,47.58.1,81.63,18.7,24.46,13.36,39.98,30.53,48.47,41.59-5.96,4.56-11.92,9.12-17.88,13.67-8.55-8.69-21.22-19.27-38.61-27.29-43.31-19.96-84.99-9.79-99.71-5.35-9.47,20.17-15.63,42.21-17.76,65.41,12.38-10.15,40.62-30.2,78.83-33.59,22.93-2.03,48.48,6.16,60.59,9.96-.55,6.87-7.75,9.73-8.3,16.6-11.37-1.85-25.92-2.74-42.33,0-46.02,7.68-76.35,40.07-87.58,53.85,3.28,22.59,10.39,43.94,20.65,63.37,7.5-20.52,30.99-74.17,80.22-87.35,5.99-1.6,12.76-2.71,20.33-2.91,2.95,6.23,5.91,12.46,8.86,18.69-10.78,4.09-23.83,10.59-36.67,21.15-34.9,28.7-45.02,68.27-48.16,86.58,14.35,16.77,31.46,31.1,50.63,42.29-3.05-16.69-5.41-44.84,5.07-76.69,8.72-26.47,22.8-44.84,32.14-55.19,5.56,5.04,11.12,10.07,16.68,15.11-7,9.98-15.12,24.36-19.86,42.91-10.32,40.39,1.79,75.39,9.7,92.69,17.6,5.15,36.22,7.93,55.49,7.93,2.45,0,4.89-.06,7.32-.15-11.07-11.94-29.83-35.87-37.89-71.33Z"
              />
              <circle class="cls-3" cx="920.79" cy="343.82" r="75.53" />
            </g>
          </g>
          <rect
            class="cls-3"
            x="84.62"
            y="171.43"
            width="86.18"
            height="86.18"
          />
          <rect
            class="cls-3"
            x="84.62"
            y="272.78"
            width="86.18"
            height="86.18"
          />
          <rect
            class="cls-3"
            x="75.04"
            y="403.25"
            width="128.48"
            height="128.48"
          />
          <rect
            class="cls-3"
            x="58.28"
            y="378.12"
            width="26.33"
            height="26.33"
          />
          <rect
            class="cls-3"
            x="67.06"
            y="516.17"
            width="26.33"
            height="26.33"
          />
          <rect
            id="light_gc1"
            class="cls-2"
            x="331.2"
            y="633.48"
            width="47.88"
            height="9.58"
          />
          <rect
            id="light_gc2"
            class="cls-2"
            x="398.24"
            y="633.48"
            width="340.75"
            height="9.58"
          />
          <circle
            id="circle_gc"
            class="cls-2"
            cx="128.11"
            cy="114.77"
            r="12.37"
          />
        </svg>