 <svg
          id="internal_hard_drive"
          class="item"
          data-name="Internal hard drive"
          xmlns="http://www.w3.org/2000/svg"
          viewBox="0 0 887 1200"
        >
          
          <rect class="cls-1" x="38.5" y="18" width="810" height="1164" />
          <g>
            <g id="R.2-1">
              <circle class="cls-2" cx="80.53" cy="56.74" r="19.29" />
            </g>
            <g id="R.2-2" data-name="R.2">
              <circle class="cls-2" cx="80.53" cy="647.74" r="19.29" />
            </g>
            <g id="R.2-3" data-name="R.2">
              <circle class="cls-2" cx="80.53" cy="1139.74" r="19.29" />
            </g>
            <g id="R.2-4" data-name="R.2">
              <circle class="cls-2" cx="801.53" cy="56.74" r="19.29" />
            </g>
            <g id="R.2-5" data-name="R.2">
              <circle class="cls-2" cx="801.53" cy="647.74" r="19.29" />
            </g>
            <g id="R.2-6" data-name="R.2">
              <circle class="cls-2" cx="801.53" cy="1139.74" r="19.29" />
            </g>
          </g>
          <path
            class="cls-3"
            d="M443.5,30.74C232.8,30.74,62,201.55,62,412.24s170.8,381.5,381.5,381.5,381.5-170.8,381.5-381.5S654.2,30.74,443.5,30.74ZM443.5,545.24c-73.45,0-133-59.55-133-133s59.55-133,133-133,133,59.55,133,133-59.55,133-133,133Z"
          />
          <g id="ihd_ventilador">
            <circle
              id="R.2-7"
              data-name="R.2"
              class="cls-2"
              cx="402.5"
              cy="339.24"
              r="19.29"
            />
            <circle
              id="R.2-8"
              data-name="R.2"
              class="cls-2"
              cx="488.5"
              cy="339.24"
              r="19.29"
            />
            <circle
              id="R.2-9"
              data-name="R.2"
              class="cls-2"
              cx="446.5"
              cy="412.5"
              r="43.5"
            />
            <circle
              id="R.2-10"
              data-name="R.2"
              class="cls-2"
              cx="402.5"
              cy="485.24"
              r="19.29"
            />
            <circle
              id="R.2-11"
              data-name="R.2"
              class="cls-2"
              cx="359.5"
              cy="412.24"
              r="19.29"
            />
            <circle
              id="R.2-12"
              data-name="R.2"
              class="cls-2"
              cx="527.5"
              cy="412.24"
              r="19.29"
            />
            <circle
              id="R.2-13"
              data-name="R.2"
              class="cls-2"
              cx="488.5"
              cy="485.24"
              r="19.29"
            />
          </g>
          <g>
            <path
              class="cls-3"
              d="M162.21,733l85.2,48.31-16.2,39.69h24.2v65.17h71.13v80.67c3.83,2.32,12.6,6.93,24.66,7.16,13.13.24,22.69-4.85,26.5-7.16,1.77-1.88,14.64-15.1,34.5-13.84,16.56,1.04,26.75,11.44,29,13.84v59.95c0,33.25-26.95,60.2-60.2,60.2h-229.59c-33.25,0-60.2-26.95-60.2-60.2v-236.92h38l33-56.88Z"
            />
            <polygon
              class="cls-3"
              points="705.21 716 777.21 762 777.21 867.95 741.86 903.3 795.87 957.31 640.19 1112.99 561.71 1121.25 469.83 1029.38 597.71 901.5 551.78 855.58 705.21 716"
            />
          </g>
          <g id="ihd_stick">
            <path
              id="topPart"
              class="cls-1"
              d="M357.66,954.56c-14.05,14.05-41.81,9.08-62-11.11l-29.15-29.15c-20.19-20.19-25.16-47.95-11.11-62,255.13-215.52,338.18-263.83,351.98-250.04,13.79,13.79-34.44,96.91-249.71,352.31Z"
            />
            <circle class="cls-1" cx="611.21" cy="598" r="13" />
            <circle class="cls-2" cx="331.71" cy="880.5" r="46" />
            <circle class="cls-2" cx="548.96" cy="663.25" r="12.75" />
            <rect
              class="cls-2"
              x="384.15"
              y="779.35"
              width="55.42"
              height="31"
              rx="15.5"
              ry="15.5"
              transform="translate(-441.41 524.03) rotate(-45)"
            />
            <rect
              class="cls-2"
              x="458.15"
              y="705.35"
              width="55.42"
              height="31"
              rx="15.5"
              ry="15.5"
              transform="translate(-367.41 554.69) rotate(-45)"
            />
          </g>
        </svg>