<?xml version="1.0" encoding="UTF-8"?>
<svg id="Capa_1" data-name="Capa 1" xmlns="http://www.w3.org/2000/svg" viewBox="0 0 1908 576">
  <defs>
    <style>
      .cls-1 {
        fill: #171523;
        stroke-width: 0px;
      }
    </style>
  </defs>
  <g>
    <path class="cls-1" d="M401.14,102.49c-39.61-39.61-91.52-59.41-143.43-59.41l.45,202.84"/>
    <path class="cls-1" d="M469,252.29c0-56.01-22.7-106.72-59.41-143.43l-143.11,143.75"/>
    <path class="cls-1" d="M102.91,414.49c39.61,39.61,91.52,59.41,143.43,59.41l-.45-202.84"/>
    <path class="cls-1" d="M35.95,262.88c0,56.01,22.7,106.72,59.41,143.43l143.11-143.75"/>
    <path class="cls-1" d="M94.88,108.23c-39.61,39.61-59.41,91.52-59.41,143.43l202.84-.45"/>
    <path class="cls-1" d="M246.49,41.27c-56.01,0-106.72,22.7-143.43,59.41l143.75,143.11"/>
  </g>
  <g>
    <path class="cls-1" d="M432.48,339.94c0,45.52-33.7,73.61-88.09,73.61h-46.71v59.71h-38.43v-206.93h85.14c54.39,0,88.09,27.79,88.09,73.61ZM393.76,339.94c0-26.01-17.44-41.09-51.14-41.09h-44.93v82.18h44.93c33.7,0,51.14-15.08,51.14-41.09Z"/>
    <path class="cls-1" d="M459.08,369.79c0-61.19,47.3-106.42,111.44-106.42s111.44,44.93,111.44,106.42-47.3,106.42-111.44,106.42-111.44-45.23-111.44-106.42ZM643.25,369.79c0-42.27-31.04-72.72-72.72-72.72s-72.72,30.45-72.72,72.72,31.04,72.72,72.72,72.72,72.72-30.45,72.72-72.72Z"/>
    <path class="cls-1" d="M858.15,473.26l-42.27-60.6c-2.66.3-5.32.3-7.98.3h-46.71v60.3h-38.43v-206.93h85.14c54.39,0,88.09,27.79,88.09,73.61,0,31.33-15.96,54.39-44.05,65.33l47.59,67.99h-41.39ZM806.12,298.85h-44.93v82.47h44.93c33.7,0,51.14-15.37,51.14-41.38s-17.44-41.09-51.14-41.09Z"/>
    <path class="cls-1" d="M977.86,298.85h-68.58v-32.52h175.59v32.52h-68.58v174.41h-38.43v-174.41Z"/>
    <path class="cls-1" d="M1113.83,266.33h38.43v206.93h-38.43v-206.93Z"/>
    <path class="cls-1" d="M1193.35,369.79c0-61.19,47.3-106.42,111.44-106.42s111.44,44.93,111.44,106.42-47.3,106.42-111.44,106.42-111.44-45.23-111.44-106.42ZM1377.51,369.79c0-42.27-31.04-72.72-72.72-72.72s-72.72,30.45-72.72,72.72,31.04,72.72,72.72,72.72,72.72-30.45,72.72-72.72Z"/>
    <path class="cls-1" d="M1640.89,266.33v206.93h-31.63l-114.1-140.12v140.12h-38.13v-206.93h31.63l114.11,140.12v-140.12h38.13Z"/>
    <path class="cls-1" d="M1679.02,451.38l13.3-29.86c16.55,13.3,42.86,22.76,68.29,22.76,32.22,0,45.82-11.53,45.82-26.9,0-44.64-122.97-15.37-122.97-92.23,0-33.4,26.6-61.78,83.36-61.78,24.83,0,50.84,6.5,68.88,18.33l-12.12,29.86c-18.62-10.94-39.02-16.26-57.05-16.26-31.93,0-44.93,12.42-44.93,28.08,0,44.04,122.68,15.37,122.68,91.34,0,33.11-26.9,61.49-83.66,61.49-32.22,0-64.44-10.05-81.59-24.83Z"/>
  </g>
  <g>
    <path class="cls-1" d="M533.17,215.02c0-18.1,13.75-31.49,32.2-31.49,8.78,0,16.68,2.84,22.09,8.61l-2.84,2.93c-5.32-5.23-11.8-7.36-19.07-7.36-15.88,0-27.86,11.71-27.86,27.32s11.98,27.32,27.86,27.32c7.28,0,13.75-2.22,19.07-7.45l2.84,2.93c-5.41,5.77-13.31,8.69-22.09,8.69-18.45,0-32.2-13.4-32.2-31.49Z"/>
    <path class="cls-1" d="M666.33,215.02c0-18.01,13.75-31.49,32.29-31.49s32.29,13.4,32.29,31.49-13.84,31.49-32.29,31.49-32.29-13.48-32.29-31.49ZM726.3,215.02c0-15.7-11.89-27.32-27.68-27.32s-27.77,11.62-27.77,27.32,11.89,27.32,27.77,27.32,27.68-11.62,27.68-27.32Z"/>
    <path class="cls-1" d="M876.31,246.07l-.09-53.14-25.99,44.89h-2.22l-25.99-44.71v52.96h-4.44v-62.1h3.81l27.77,48,27.77-48h3.73l.09,62.1h-4.44Z"/>
    <path class="cls-1" d="M1020.65,204.91c0,13.04-9.4,20.85-25.02,20.85h-17.74v20.32h-4.52v-62.1h22.27c15.61,0,25.02,7.81,25.02,20.94ZM1016.04,204.91c0-10.74-7.1-16.86-20.4-16.86h-17.74v33.62h17.74c13.31,0,20.4-6.12,20.4-16.77Z"/>
    <path class="cls-1" d="M1101.82,215.02c0-18.01,13.75-31.49,32.29-31.49s32.29,13.4,32.29,31.49-13.84,31.49-32.29,31.49-32.29-13.48-32.29-31.49ZM1161.79,215.02c0-15.7-11.89-27.32-27.68-27.32s-27.77,11.62-27.77,27.32,11.89,27.32,27.77,27.32,27.68-11.62,27.68-27.32Z"/>
    <path class="cls-1" d="M1303.65,183.97v62.1h-3.73l-42.32-53.94v53.94h-4.52v-62.1h3.81l42.23,53.94v-53.94h4.52Z"/>
    <path class="cls-1" d="M1439.11,241.99v4.08h-42.85v-62.1h41.52v4.08h-36.99v24.49h33.09v3.99h-33.09v25.46h38.32Z"/>
    <path class="cls-1" d="M1577.15,183.97v62.1h-3.73l-42.32-53.94v53.94h-4.52v-62.1h3.81l42.23,53.94v-53.94h4.52Z"/>
    <path class="cls-1" d="M1681.66,188.05h-22.36v-4.08h49.24v4.08h-22.36v58.02h-4.52v-58.02Z"/>
    <path class="cls-1" d="M1783.23,238.09l2.04-3.37c4.26,4.44,12.15,7.81,20.49,7.81,12.42,0,17.92-5.41,17.92-12.15,0-18.63-38.77-7.45-38.77-30.34,0-8.78,6.74-16.5,22-16.5,6.83,0,13.93,2.13,18.72,5.59l-1.69,3.64c-5.15-3.55-11.44-5.23-17.03-5.23-12.06,0-17.48,5.59-17.48,12.42,0,18.63,38.77,7.63,38.77,30.16,0,8.78-7.01,16.41-22.36,16.41-9.23,0-18.1-3.46-22.62-8.43Z"/>
  </g>
</svg>