<?xml version="1.0" encoding="UTF-8"?>
<svg id="logo_portions" data-name="Logo Portions" xmlns="http://www.w3.org/2000/svg" xmlns:xlink="http://www.w3.org/1999/xlink" viewBox="0 0 8135.76 6313.87">
  <defs>
    <style>
      .cls-1, .cls-2, .cls-3, .cls-4, .cls-5, .cls-6, .cls-7, .cls-8, .cls-9, .cls-10, .cls-11, .cls-12, .cls-13, .cls-14, .cls-15, .cls-16, .cls-17, .cls-18, .cls-19, .cls-20, .cls-21, .cls-22 {
        stroke-miterlimit: 10;
      }

      .cls-1, .cls-2, .cls-3, .cls-4, .cls-5, .cls-6, .cls-8, .cls-9, .cls-11, .cls-12, .cls-13, .cls-14, .cls-15, .cls-17, .cls-18, .cls-19, .cls-21, .cls-22 {
        fill: none;
      }

      .cls-1, .cls-2, .cls-4, .cls-9, .cls-12, .cls-13, .cls-14, .cls-19, .cls-22 {
        stroke: #fdae37;
      }

      .cls-1, .cls-20 {
        stroke-width: 15px;
      }

      .cls-2 {
        stroke-width: 22.37px;
      }

      .cls-23 {
        font-family: Montserrat-SemiBold, Montserrat;
        font-size: 295.6px;
        font-weight: 600;
      }

      .cls-23, .cls-24, .cls-25 {
        fill: #fff;
      }

      .cls-3 {
        stroke-width: 5.76px;
      }

      .cls-3, .cls-18 {
        stroke: #655643;
      }

      .cls-26 {
        filter: url(#outer-glow-3);
      }

      .cls-4 {
        stroke-width: 32.09px;
      }

      .cls-27 {
        filter: url(#outer-glow-4);
      }

      .cls-28 {
        fill: #171523;
      }

      .cls-28, .cls-29, .cls-30, .cls-25, .cls-31 {
        stroke-width: 0px;
      }

      .cls-5 {
        stroke-width: 8px;
      }

      .cls-5, .cls-6, .cls-11, .cls-15 {
        stroke: #f5f4bc;
      }

      .cls-6 {
        stroke-width: 6.42px;
      }

      .cls-7 {
        stroke-width: 7.72px;
      }

      .cls-7, .cls-10, .cls-16, .cls-20 {
        stroke: #fff;
      }

      .cls-7, .cls-10, .cls-16, .cls-20, .cls-31 {
        fill: #fdae37;
      }

      .cls-8 {
        stroke-width: 2px;
      }

      .cls-8, .cls-21 {
        stroke: #171523;
      }

      .cls-24 {
        font-family: Montserrat-Light, Montserrat;
        font-size: 88.71px;
        font-weight: 300;
      }

      .cls-9 {
        stroke-width: 61.27px;
      }

      .cls-10 {
        stroke-width: 11.57px;
      }

      .cls-32 {
        letter-spacing: 0em;
      }

      .cls-29 {
        fill: #f4f4f4;
      }

      .cls-33 {
        filter: url(#outer-glow-1);
      }

      .cls-34 {
        filter: url(#outer-glow-9);
      }

      .cls-11 {
        stroke-width: 9.63px;
      }

      .cls-12 {
        stroke-width: 25px;
      }

      .cls-35 {
        filter: url(#outer-glow-10);
      }

      .cls-13 {
        stroke-width: 40px;
      }

      .cls-14 {
        stroke-width: 15.78px;
      }

      .cls-36 {
        letter-spacing: .79em;
      }

      .cls-37 {
        letter-spacing: .8em;
      }

      .cls-38 {
        filter: url(#outer-glow-8);
      }

      .cls-39 {
        letter-spacing: 0em;
      }

      .cls-15 {
        stroke-width: 12px;
      }

      .cls-40 {
        filter: url(#outer-glow-5);
      }

      .cls-30 {
        fill: #2d2d2d;
      }

      .cls-41 {
        filter: url(#outer-glow-7);
      }

      .cls-42 {
        filter: url(#outer-glow-12);
      }

      .cls-16, .cls-18 {
        stroke-width: 10px;
      }

      .cls-43 {
        letter-spacing: .79em;
      }

      .cls-17 {
        stroke: #2d2d2d;
        stroke-width: 5px;
      }

      .cls-19 {
        stroke-width: 41.77px;
      }

      .cls-44 {
        filter: url(#outer-glow-11);
      }

      .cls-21 {
        stroke-width: 1.15px;
      }

      .cls-45 {
        filter: url(#outer-glow-6);
      }

      .cls-46 {
        filter: url(#outer-glow-2);
      }

      .cls-22 {
        stroke-width: 8.64px;
      }
    </style>
    <filter id="outer-glow-1" filterUnits="userSpaceOnUse">
      <feOffset dx="0" dy="0"/>
      <feGaussianBlur result="blur" stdDeviation="123.1"/>
      <feFlood flood-color="#ffbc27" flood-opacity=".5"/>
      <feComposite in2="blur" operator="in"/>
      <feComposite in="SourceGraphic"/>
    </filter>
    <filter id="outer-glow-2" filterUnits="userSpaceOnUse">
      <feOffset dx="0" dy="0"/>
      <feGaussianBlur result="blur-2" stdDeviation="123.1"/>
      <feFlood flood-color="#ffbc27" flood-opacity=".5"/>
      <feComposite in2="blur-2" operator="in"/>
      <feComposite in="SourceGraphic"/>
    </filter>
    <filter id="outer-glow-3" filterUnits="userSpaceOnUse">
      <feOffset dx="0" dy="0"/>
      <feGaussianBlur result="blur-3" stdDeviation="107.12"/>
      <feFlood flood-color="#ffbc27" flood-opacity=".5"/>
      <feComposite in2="blur-3" operator="in"/>
      <feComposite in="SourceGraphic"/>
    </filter>
    <filter id="outer-glow-4" filterUnits="userSpaceOnUse">
      <feOffset dx="0" dy="0"/>
      <feGaussianBlur result="blur-4" stdDeviation="123.1"/>
      <feFlood flood-color="#ffbc27" flood-opacity=".5"/>
      <feComposite in2="blur-4" operator="in"/>
      <feComposite in="SourceGraphic"/>
    </filter>
    <filter id="outer-glow-5" filterUnits="userSpaceOnUse">
      <feOffset dx="0" dy="0"/>
      <feGaussianBlur result="blur-5" stdDeviation="123.1"/>
      <feFlood flood-color="#ffbc27" flood-opacity=".5"/>
      <feComposite in2="blur-5" operator="in"/>
      <feComposite in="SourceGraphic"/>
    </filter>
    <filter id="outer-glow-6" filterUnits="userSpaceOnUse">
      <feOffset dx="0" dy="0"/>
      <feGaussianBlur result="blur-6" stdDeviation="123.1"/>
      <feFlood flood-color="#ffbc27" flood-opacity=".5"/>
      <feComposite in2="blur-6" operator="in"/>
      <feComposite in="SourceGraphic"/>
    </filter>
    <filter id="outer-glow-7" filterUnits="userSpaceOnUse">
      <feOffset dx="0" dy="0"/>
      <feGaussianBlur result="blur-7" stdDeviation="123.1"/>
      <feFlood flood-color="#ffbc27" flood-opacity=".5"/>
      <feComposite in2="blur-7" operator="in"/>
      <feComposite in="SourceGraphic"/>
    </filter>
    <filter id="outer-glow-8" filterUnits="userSpaceOnUse">
      <feOffset dx="0" dy="0"/>
      <feGaussianBlur result="blur-8" stdDeviation="123.1"/>
      <feFlood flood-color="#ffbc27" flood-opacity=".5"/>
      <feComposite in2="blur-8" operator="in"/>
      <feComposite in="SourceGraphic"/>
    </filter>
    <filter id="outer-glow-9" filterUnits="userSpaceOnUse">
      <feOffset dx="0" dy="0"/>
      <feGaussianBlur result="blur-9" stdDeviation="123.1"/>
      <feFlood flood-color="#ffbc27" flood-opacity=".5"/>
      <feComposite in2="blur-9" operator="in"/>
      <feComposite in="SourceGraphic"/>
    </filter>
    <filter id="outer-glow-10" filterUnits="userSpaceOnUse">
      <feOffset dx="0" dy="0"/>
      <feGaussianBlur result="blur-10" stdDeviation="123.1"/>
      <feFlood flood-color="#ffbc27" flood-opacity=".5"/>
      <feComposite in2="blur-10" operator="in"/>
      <feComposite in="SourceGraphic"/>
    </filter>
    <filter id="outer-glow-11" filterUnits="userSpaceOnUse">
      <feOffset dx="0" dy="0"/>
      <feGaussianBlur result="blur-11" stdDeviation="123.1"/>
      <feFlood flood-color="#ffbc27" flood-opacity=".5"/>
      <feComposite in2="blur-11" operator="in"/>
      <feComposite in="SourceGraphic"/>
    </filter>
    <filter id="outer-glow-12" filterUnits="userSpaceOnUse">
      <feOffset dx="0" dy="0"/>
      <feGaussianBlur result="blur-12" stdDeviation="83.43"/>
      <feFlood flood-color="#ffbc27" flood-opacity=".5"/>
      <feComposite in2="blur-12" operator="in"/>
      <feComposite in="SourceGraphic"/>
    </filter>
  </defs>
  <rect class="cls-28" x="3003.76" width="5132" height="3164"/>
  <g>
    <rect class="cls-28" x="28.51" y="176.75" width="1100.5" height="1100.5" rx="42.39" ry="42.39"/>
    <circle class="cls-25" cx="584.92" cy="718.85" r="523.67"/>
    <path id="ventilador" class="cls-28" d="M1072.25,674.78c-1.78-21.37-5.23-38.89-8.02-50.82-5.27-11.3-11.67-16.86-18.03-19.29-30.39-11.63-63.73,45.2-162.13,79.38-31.85,11.07-79.25,24.27-148.41,12.7-1.8-7.72-3.61-15.43-5.41-23.15,18.67-7.02,44.99-18.04,74.93-34.6,70.84-39.16,111.08-81.18,126.09-97.82,41.15-45.63,48.62-66.41,49.14-82.29.15-4.61.47-15.08-2.68-27.09-8.38-20.39-24.89-52.95-56.51-83.54-43.82-42.4-92.14-57.29-115.08-62.77-9.01-.71-14.97,1.25-18.23,3.08-28.37,15.94-5.95,77.9-42.53,175.44-11.84,31.57-31.97,76.47-85.06,122.28-7.09-3.54-14.18-7.09-21.27-10.63,6.53-18.85,14.87-46.13,21.27-79.75,15.13-79.51,8.53-137.32,5.32-159.49-8.81-60.81-20.02-79.84-31.9-90.38-3.34-2.97-10.84-9.56-21.55-14.75-11.33-.77-22.75-1.2-34.27-1.2-54.07,0-106.11,8.67-154.84,24.63-3.88,4.12-6.3,8.21-7.73,12.12-12.57,34.43,49.3,60.72,86.71,160.34,12.11,32.25,26.59,80.77,14.18,156.66-8.39,3.2-16.77,6.4-25.16,9.6-7.68-18.81-19.73-45.15-37.8-74.45-42.76-69.31-88.54-105.43-106.66-118.74-49.71-36.49-72.32-41.06-89.58-38.99-3.72.44-10.94,1.32-19.75,3.92-53.34,50.21-95.58,112.07-122.66,181.52.78,8.56,3.21,14.79,6.43,19.35,21.14,29.94,77.99-5.94,181.18,20.06,33.4,8.41,81.53,24.15,136.84,77.58-2.15,8.72-4.29,17.43-6.43,26.15-19.84-4.4-48.34-9.5-82.72-11.34-81.32-4.34-137.09,12.72-158.35,20.04-58.31,20.07-74.94,36.06-83.08,51.42-5.07,9.58-11.56,23.49-12.87,52.29-2.69,59.2,17.66,110.7,37.07,146.14,14.08,17.17,26.04,23.11,35.73,24.02,36.49,3.41,46.2-63.11,133.04-124.61,28.11-19.91,71.36-46.24,147.92-53.53,5.23,7.3,10.45,14.59,15.68,21.89-16.24,12.21-38.65,30.55-62.4,55.48-56.17,58.97-79.47,112.43-87.73,133.34-22.66,57.35-21.33,80.38-14.95,96.55,2.81,7.11,11.01,27.89,31.36,43.78,10.99,8.58,20.78,13.53,26.47,15.98,59.9,25.82,152.12,65.58,178.34,35.61,21.48-24.56-23.82-70.45-22.27-180.92.48-34.44,4.7-84.91,43.93-151.04,8.98.08,17.95.15,26.93.23.29,20.32,1.9,49.23,8.05,83.11,14.53,80.13,43.99,130.46,56.02,149.46,32.98,52.11,52.37,64.61,69.19,68.98,19.17,4.98,34.88,3.5,53.85.46,56.71-9.08,95.77-39.76,109.26-51.26,19.69-16.78,83.18-70.89,69.64-108.65-11.92-33.24-71.64-19.22-163.39-76.76-28.57-17.92-68.53-46.62-102.8-107.8,4.89-6.24,9.78-12.47,14.67-18.71,17.16,10.16,42.23,23.79,73.88,36.78,74.88,30.73,132.84,35.82,155.21,37.1,48.77,2.81,73.26,1.72,94.93-13.18,61.34-42.17,51.74-157.24,49.01-189.93Z"/>
    <circle id="rodona" class="cls-31" cx="581.42" cy="716.37" r="148.86"/>
    <circle id="R.2" class="cls-31" cx="1065.29" cy="235.45" r="34.26"/>
    <circle id="R.1" class="cls-31" cx="95.62" cy="235.45" r="34.26"/>
    <circle id="R.3" class="cls-31" cx="95.62" cy="1212.81" r="34.26"/>
    <circle id="R.4" class="cls-31" cx="1065.29" cy="1212.81" r="34.26"/>
  </g>
  <g class="cls-33">
    <rect class="cls-28" x="3503.43" y="629" width="618.48" height="618.48" rx="42.39" ry="42.39"/>
    <circle class="cls-25" cx="3816.13" cy="933.66" r="294.3"/>
    <path id="ventilador-2" data-name="ventilador" class="cls-28" d="M4090.01,908.89c-1-12.01-2.94-21.86-4.51-28.56-2.96-6.35-6.56-9.47-10.13-10.84-17.08-6.54-35.82,25.4-91.12,44.61-17.9,6.22-44.54,13.64-83.41,7.14-1.01-4.34-2.03-8.67-3.04-13.01,10.49-3.95,25.28-10.14,42.11-19.44,39.81-22.01,62.43-45.62,70.86-54.97,23.13-25.64,27.33-37.32,27.62-46.24.08-2.59.26-8.47-1.51-15.23-4.71-11.46-13.99-29.76-31.76-46.95-24.63-23.83-51.78-32.2-64.68-35.28-5.06-.4-8.41.7-10.24,1.73-15.94,8.96-3.35,43.78-23.9,98.6-6.65,17.74-17.97,42.98-47.81,68.72-3.98-1.99-7.97-3.98-11.95-5.98,3.67-10.59,8.36-25.93,11.95-44.82,8.51-44.69,4.79-77.17,2.99-89.63-4.95-34.18-11.25-44.87-17.93-50.79-1.88-1.67-6.09-5.37-12.11-8.29-6.37-.43-12.78-.67-19.26-.67-30.39,0-59.63,4.87-87.02,13.84-2.18,2.31-3.54,4.61-4.34,6.81-7.06,19.35,27.71,34.12,48.73,90.11,6.81,18.12,14.94,45.39,7.97,88.04-4.71,1.8-9.43,3.6-14.14,5.4-4.32-10.57-11.09-25.37-21.24-41.84-24.03-38.95-49.76-59.25-59.94-66.73-27.94-20.51-40.64-23.08-50.34-21.91-2.09.25-6.15.74-11.1,2.2-29.98,28.22-53.72,62.98-68.93,102.01.44,4.81,1.8,8.31,3.61,10.88,11.88,16.83,43.83-3.34,101.82,11.27,18.77,4.73,45.82,13.57,76.91,43.6-1.21,4.9-2.41,9.8-3.62,14.69-11.15-2.47-27.17-5.34-46.49-6.37-45.7-2.44-77.04,7.15-88.99,11.26-32.77,11.28-42.12,20.26-46.69,28.9-2.85,5.38-6.5,13.2-7.23,29.39-1.51,33.27,9.93,62.21,20.83,82.13,7.91,9.65,14.63,12.99,20.08,13.5,20.51,1.92,25.96-35.47,74.77-70.03,15.8-11.19,40.11-25.99,83.13-30.08,2.94,4.1,5.88,8.2,8.81,12.3-9.13,6.86-21.72,17.17-35.07,31.18-31.57,33.14-44.66,63.18-49.31,74.94-12.74,32.23-11.99,45.17-8.4,54.26,1.58,4,6.19,15.68,17.63,24.6,6.17,4.82,11.68,7.6,14.88,8.98,33.66,14.51,85.49,36.86,100.22,20.01,12.07-13.8-13.39-39.59-12.51-101.68.27-19.36,2.64-47.72,24.69-84.89,5.04.04,10.09.09,15.13.13.16,11.42,1.07,27.67,4.52,46.71,8.17,45.03,24.72,73.32,31.48,84,18.53,29.28,29.43,36.31,38.89,38.77,10.78,2.8,19.6,1.97,30.27.26,31.87-5.1,53.82-22.35,61.4-28.81,11.07-9.43,46.75-39.84,39.14-61.06-6.7-18.68-40.26-10.8-91.83-43.14-16.06-10.07-38.52-26.2-57.77-60.58,2.75-3.5,5.5-7.01,8.24-10.51,9.64,5.71,23.73,13.37,41.52,20.67,42.08,17.27,74.66,20.13,87.23,20.85,27.41,1.58,41.17.96,53.35-7.41,34.48-23.7,29.08-88.37,27.55-106.74Z"/>
    <circle id="rodona-2" data-name="rodona" class="cls-31" cx="3814.16" cy="932.26" r="83.66"/>
    <circle id="R.2-2" data-name="R.2" class="cls-31" cx="4086.1" cy="661.99" r="19.25"/>
    <circle id="R.1-2" data-name="R.1" class="cls-31" cx="3541.14" cy="661.99" r="19.25"/>
    <circle id="R.3-2" data-name="R.3" class="cls-31" cx="3541.14" cy="1211.27" r="19.25"/>
    <circle id="R.4-2" data-name="R.4" class="cls-31" cx="4086.1" cy="1211.27" r="19.25"/>
  </g>
  <g>
    <rect class="cls-28" x="24.76" y="1413" width="1112" height="668" rx="27.3" ry="27.3"/>
    <g>
      <g>
        <rect class="cls-31" x="76.09" y="1471.19" width="570.25" height="570.25" rx="24.51" ry="24.51"/>
        <circle class="cls-25" cx="364.41" cy="1752.1" r="271.35"/>
        <path id="ventilador-3" data-name="ventilador" class="cls-28" d="M616.93,1729.26c-.92-11.07-2.71-20.15-4.15-26.34-2.73-5.85-6.05-8.73-9.34-10-15.75-6.03-33.02,23.42-84.01,41.13-16.51,5.73-41.07,12.58-76.9,6.58-.93-4-1.87-8-2.8-12,9.67-3.64,23.31-9.35,38.83-17.93,36.7-20.29,57.56-42.07,65.33-50.69,21.32-23.64,25.2-34.41,25.46-42.64.08-2.39.24-7.81-1.39-14.04-4.34-10.57-12.9-27.44-29.28-43.29-22.71-21.97-47.74-29.69-59.63-32.53-4.67-.37-7.76.65-9.45,1.6-14.7,8.26-3.08,40.37-22.04,90.91-6.14,16.36-16.56,39.63-44.08,63.36-3.67-1.84-7.35-3.67-11.02-5.51,3.38-9.77,7.7-23.9,11.02-41.32,7.84-41.2,4.42-71.16,2.75-82.64-4.56-31.51-10.37-41.37-16.53-46.83-1.73-1.54-5.62-4.96-11.17-7.64-5.87-.4-11.79-.62-17.76-.62-28.02,0-54.98,4.49-80.23,12.76-2.01,2.13-3.26,4.25-4.01,6.28-6.51,17.84,25.55,31.46,44.93,83.08,6.28,16.71,13.78,41.85,7.35,81.18-4.35,1.66-8.69,3.32-13.04,4.98-3.98-9.75-10.22-23.39-19.59-38.58-22.15-35.92-45.88-54.63-55.27-61.53-25.76-18.91-37.48-21.28-46.42-20.21-1.93.23-5.67.68-10.24,2.03-27.64,26.02-49.53,58.07-63.56,94.06.41,4.43,1.66,7.66,3.33,10.03,10.95,15.52,40.41-3.08,93.88,10.39,17.31,4.36,42.25,12.52,70.91,40.2-1.11,4.52-2.22,9.03-3.33,13.55-10.28-2.28-25.05-4.92-42.86-5.87-42.14-2.25-71.04,6.59-82.05,10.38-30.21,10.4-38.83,18.68-43.05,26.64-2.63,4.96-5.99,12.17-6.67,27.1-1.4,30.68,9.15,57.36,19.21,75.73,7.3,8.9,13.49,11.97,18.51,12.44,18.91,1.77,23.94-32.7,68.94-64.57,14.57-10.32,36.98-23.96,76.65-27.74,2.71,3.78,5.42,7.56,8.13,11.34-8.42,6.33-20.03,15.83-32.33,28.75-29.11,30.56-41.18,58.26-45.46,69.09-11.74,29.72-11.05,41.65-7.75,50.03,1.45,3.68,5.71,14.45,16.25,22.69,5.69,4.44,10.77,7.01,13.72,8.28,31.04,13.38,78.83,33.98,92.41,18.45,11.13-12.72-12.34-36.5-11.54-93.75.25-17.85,2.44-44,22.76-78.27,4.65.04,9.3.08,13.95.12.15,10.53.99,25.51,4.17,43.06,7.53,41.52,22.8,67.6,29.03,77.45,17.09,27,27.14,33.48,35.85,35.74,9.94,2.58,18.08,1.81,27.91.24,29.39-4.7,49.63-20.6,56.61-26.56,10.2-8.7,43.1-36.73,36.08-56.3-6.18-17.23-37.12-9.96-84.67-39.77-14.8-9.28-35.51-24.15-53.27-55.86,2.53-3.23,5.07-6.46,7.6-9.69,8.89,5.27,21.88,12.33,38.28,19.06,38.8,15.92,68.83,18.56,80.42,19.23,25.27,1.46,37.96.89,49.19-6.83,31.79-21.85,26.81-81.48,25.4-98.42Z"/>
        <circle id="rodona-3" data-name="rodona" class="cls-31" cx="362.59" cy="1750.81" r="77.14"/>
        <circle id="R.2-3" data-name="R.2" class="cls-28" cx="613.33" cy="1499.02" r="17.75"/>
        <circle id="R.1-3" data-name="R.1" class="cls-28" cx="110.87" cy="1499.02" r="17.75"/>
        <circle id="R.3-3" data-name="R.3" class="cls-28" cx="110.87" cy="2005.46" r="17.75"/>
        <circle id="R.4-3" data-name="R.4" class="cls-28" cx="613.33" cy="2005.46" r="17.75"/>
      </g>
      <circle class="cls-13" cx="361.22" cy="1756.32" r="217.92"/>
      <circle class="cls-13" cx="361.22" cy="1756.32" r="149.7"/>
    </g>
    <g>
      <path class="cls-31" d="M987.96,1663.12h-169.48c-7.71,0-15.01-3.49-19.86-9.5l-39.7-49.23c-8.4-10.41-8.4-25.27,0-35.68l39.7-49.23c4.84-6.01,12.14-9.5,19.86-9.5h169.48c7.71,0,15.01,3.49,19.86,9.5l39.7,49.23c8.4,10.41,8.4,25.27,0,35.68l-39.7,49.23c-4.84,6.01-12.14,9.5-19.86,9.5Z"/>
      <rect class="cls-25" x="820.64" y="1525.13" width="165.17" height="122.87" rx="25.55" ry="25.55"/>
      <g>
        <rect class="cls-28" x="896.43" y="1539.48" width="13.58" height="38.28"/>
        <g>
          <rect class="cls-28" x="925.45" y="1590.11" width="13.58" height="38.28"/>
          <rect class="cls-28" x="867.41" y="1590.11" width="13.58" height="38.28"/>
        </g>
      </g>
      <circle class="cls-25" cx="772.37" cy="1587.03" r="11.73"/>
      <circle class="cls-25" cx="1035.4" cy="1587.03" r="11.73"/>
    </g>
    <g>
      <rect class="cls-25" x="777.61" y="1836" width="238.8" height="169"/>
      <rect class="cls-31" x="800.26" y="1855.75" width="193.49" height="129.81"/>
      <circle class="cls-5" cx="947.52" cy="1920.81" r="25.11"/>
      <line class="cls-15" x1="822" y1="1920.66" x2="878.33" y2="1920.51"/>
    </g>
  </g>
  <g class="cls-46">
    <rect class="cls-28" x="4530.45" y="700.01" width="892.17" height="535.94" rx="27.3" ry="27.3"/>
    <g>
      <g>
        <rect class="cls-31" x="4571.63" y="746.7" width="457.52" height="457.52" rx="24.51" ry="24.51"/>
        <circle class="cls-25" cx="4802.95" cy="972.07" r="217.71"/>
        <path id="ventilador-4" data-name="ventilador" class="cls-28" d="M5005.55,953.74c-.74-8.88-2.17-16.17-3.33-21.13-2.19-4.7-4.85-7.01-7.49-8.02-12.63-4.84-26.5,18.79-67.4,33-13.24,4.6-32.95,10.09-61.7,5.28-.75-3.21-1.5-6.42-2.25-9.63,7.76-2.92,18.7-7.5,31.15-14.38,29.45-16.28,46.18-33.75,52.42-40.67,17.11-18.97,20.21-27.61,20.43-34.21.06-1.92.19-6.27-1.12-11.26-3.48-8.48-10.35-22.01-23.49-34.73-18.22-17.63-38.3-23.82-47.84-26.1-3.75-.3-6.22.52-7.58,1.28-11.79,6.63-2.47,32.39-17.68,72.94-4.92,13.13-13.29,31.79-35.36,50.84-2.95-1.47-5.89-2.95-8.84-4.42,2.71-7.83,6.18-19.18,8.84-33.15,6.29-33.06,3.55-57.09,2.21-66.31-3.66-25.28-8.32-33.19-13.26-37.57-1.39-1.23-4.51-3.98-8.96-6.13-4.71-.32-9.46-.5-14.25-.5-22.48,0-44.11,3.6-64.37,10.24-1.61,1.71-2.62,3.41-3.21,5.04-5.23,14.31,20.5,25.24,36.05,66.66,5.03,13.41,11.05,33.58,5.89,65.13-3.49,1.33-6.97,2.66-10.46,3.99-3.19-7.82-8.2-18.77-15.72-30.95-17.78-28.82-36.81-43.83-44.34-49.36-20.67-15.17-30.07-17.07-37.24-16.21-1.55.18-4.55.55-8.21,1.63-22.17,20.87-39.74,46.59-50.99,75.46.33,3.56,1.33,6.15,2.67,8.04,8.79,12.45,32.42-2.47,75.32,8.34,13.89,3.5,33.9,10.04,56.89,32.25-.89,3.62-1.78,7.25-2.68,10.87-8.25-1.83-20.1-3.95-34.39-4.71-33.81-1.8-56.99,5.29-65.83,8.33-24.24,8.34-31.16,14.99-34.54,21.38-2.11,3.98-4.81,9.77-5.35,21.74-1.12,24.61,7.34,46.02,15.41,60.76,5.85,7.14,10.82,9.61,14.85,9.98,15.17,1.42,19.21-26.24,55.31-51.81,11.69-8.28,29.67-19.22,61.49-22.25,2.17,3.03,4.35,6.07,6.52,9.1-6.75,5.08-16.07,12.7-25.94,23.06-23.35,24.51-33.04,46.74-36.47,55.43-9.42,23.84-8.87,33.42-6.21,40.14,1.17,2.96,4.58,11.6,13.04,18.2,4.57,3.57,8.64,5.63,11.01,6.65,24.9,10.74,63.24,27.26,74.14,14.8,8.93-10.21-9.9-29.29-9.26-75.21.2-14.32,1.95-35.3,18.26-62.79,3.73.03,7.46.06,11.19.1.12,8.45.79,20.47,3.35,34.55,6.04,33.31,18.29,54.24,23.29,62.14,13.71,21.66,21.77,26.86,28.77,28.68,7.97,2.07,14.5,1.45,22.39.19,23.58-3.77,39.82-16.53,45.42-21.31,8.19-6.98,34.58-29.47,28.95-45.17-4.96-13.82-29.78-7.99-67.93-31.91-11.88-7.45-28.49-19.38-42.74-44.82,2.03-2.59,4.07-5.19,6.1-7.78,7.13,4.23,17.56,9.89,30.72,15.29,31.13,12.78,55.23,14.89,64.53,15.43,20.28,1.17,30.46.71,39.47-5.48,25.5-17.53,21.51-65.37,20.38-78.96Z"/>
        <circle id="rodona-4" data-name="rodona" class="cls-31" cx="4801.49" cy="971.03" r="61.89"/>
        <circle id="R.2-4" data-name="R.2" class="cls-28" cx="5002.66" cy="769.02" r="14.24"/>
        <circle id="R.1-4" data-name="R.1" class="cls-28" cx="4599.53" cy="769.02" r="14.24"/>
        <circle id="R.3-4" data-name="R.3" class="cls-28" cx="4599.53" cy="1175.34" r="14.24"/>
        <circle id="R.4-4" data-name="R.4" class="cls-28" cx="5002.66" cy="1175.34" r="14.24"/>
      </g>
      <circle class="cls-4" cx="4800.39" cy="975.45" r="174.84"/>
      <circle class="cls-4" cx="4800.39" cy="975.45" r="120.11"/>
    </g>
    <g>
      <path class="cls-31" d="M5303.23,900.68h-135.97c-6.19,0-12.05-2.8-15.93-7.62l-31.85-39.49c-6.74-8.35-6.74-20.27,0-28.63l31.85-39.49c3.89-4.82,9.74-7.62,15.93-7.62h135.97c6.19,0,12.05,2.8,15.93,7.62l31.85,39.49c6.74,8.35,6.74,20.27,0,28.63l-31.85,39.49c-3.89,4.82-9.74,7.62-15.93,7.62Z"/>
      <rect class="cls-25" x="5168.99" y="789.97" width="132.51" height="98.58" rx="25.55" ry="25.55"/>
      <g>
        <rect class="cls-28" x="5229.8" y="801.49" width="10.9" height="30.71"/>
        <g>
          <rect class="cls-28" x="5253.08" y="842.11" width="10.9" height="30.71"/>
          <rect class="cls-28" x="5206.52" y="842.11" width="10.9" height="30.71"/>
        </g>
      </g>
      <circle class="cls-25" cx="5130.26" cy="839.63" r="9.41"/>
      <circle class="cls-25" cx="5341.29" cy="839.63" r="9.41"/>
    </g>
    <g>
      <rect class="cls-25" x="5134.46" y="1039.38" width="191.59" height="135.59"/>
      <rect class="cls-31" x="5152.64" y="1055.23" width="155.24" height="104.15"/>
      <circle class="cls-6" cx="5270.79" cy="1107.42" r="20.14"/>
      <line class="cls-11" x1="5170.08" y1="1107.31" x2="5215.28" y2="1107.19"/>
    </g>
  </g>
  <g>
    <rect class="cls-28" x="1282.26" y="145" width="810" height="1164"/>
    <g>
      <g id="R.2-5" data-name="R.2">
        <circle class="cls-25" cx="1324.28" cy="183.74" r="19.29"/>
      </g>
      <g id="R.2-6" data-name="R.2">
        <circle class="cls-25" cx="1324.28" cy="774.74" r="19.29"/>
      </g>
      <g id="R.2-7" data-name="R.2">
        <circle class="cls-25" cx="1324.28" cy="1266.74" r="19.29"/>
      </g>
      <g id="R.2-8" data-name="R.2">
        <circle class="cls-25" cx="2045.28" cy="183.74" r="19.29"/>
      </g>
      <g id="R.2-9" data-name="R.2">
        <circle class="cls-25" cx="2045.28" cy="774.74" r="19.29"/>
      </g>
      <g id="R.2-10" data-name="R.2">
        <circle class="cls-25" cx="2045.28" cy="1266.74" r="19.29"/>
      </g>
    </g>
    <path class="cls-31" d="M1687.26,157.74c-210.7,0-381.5,170.8-381.5,381.5s170.8,381.5,381.5,381.5,381.5-170.8,381.5-381.5-170.8-381.5-381.5-381.5ZM1687.26,672.24c-73.45,0-133-59.55-133-133s59.55-133,133-133,133,59.55,133,133-59.55,133-133,133Z"/>
    <g>
      <circle id="R.2-11" data-name="R.2" class="cls-25" cx="1646.26" cy="466.24" r="19.29"/>
      <circle id="R.2-12" data-name="R.2" class="cls-25" cx="1732.26" cy="466.24" r="19.29"/>
      <circle id="R.2-13" data-name="R.2" class="cls-25" cx="1690.26" cy="539.5" r="43.5"/>
      <circle id="R.2-14" data-name="R.2" class="cls-25" cx="1646.26" cy="612.24" r="19.29"/>
      <circle id="R.2-15" data-name="R.2" class="cls-25" cx="1603.26" cy="539.24" r="19.29"/>
      <circle id="R.2-16" data-name="R.2" class="cls-25" cx="1771.26" cy="539.24" r="19.29"/>
      <circle id="R.2-17" data-name="R.2" class="cls-25" cx="1732.26" cy="612.24" r="19.29"/>
    </g>
    <g>
      <path class="cls-31" d="M1405.96,860l85.2,48.31-16.2,39.69h24.2v65.17h71.13v80.67c3.83,2.32,12.6,6.93,24.66,7.16,13.13.24,22.69-4.85,26.5-7.16,1.77-1.88,14.64-15.1,34.5-13.84,16.56,1.04,26.75,11.44,29,13.84v59.95c0,33.25-26.95,60.2-60.2,60.2h-229.59c-33.25,0-60.2-26.95-60.2-60.2v-236.92h38l33-56.88Z"/>
      <polygon class="cls-31" points="1948.96 843 2020.96 889 2020.96 994.95 1985.61 1030.3 2039.63 1084.31 1883.95 1239.99 1805.46 1248.25 1713.59 1156.38 1841.46 1028.5 1795.54 982.58 1948.96 843"/>
    </g>
    <g>
      <path class="cls-28" d="M1601.41,1081.56c-14.05,14.05-41.81,9.08-62-11.11l-29.15-29.15c-20.19-20.19-25.16-47.95-11.11-62,255.13-215.52,338.18-263.83,351.98-250.04,13.79,13.79-34.44,96.91-249.71,352.31Z"/>
      <circle class="cls-28" cx="1854.96" cy="725" r="13"/>
      <circle class="cls-25" cx="1575.46" cy="1007.5" r="46"/>
      <circle class="cls-25" cx="1792.71" cy="790.25" r="12.75"/>
      <rect class="cls-25" x="1627.9" y="906.35" width="55.42" height="31" rx="15.5" ry="15.5" transform="translate(-166.92 1440.7) rotate(-45)"/>
      <rect class="cls-25" x="1701.9" y="832.35" width="55.42" height="31" rx="15.5" ry="15.5" transform="translate(-92.92 1471.35) rotate(-45)"/>
    </g>
  </g>
  <g class="cls-26">
    <rect class="cls-28" x="4702.12" y="1526.98" width="538.94" height="774.48" transform="translate(3057.38 6885.81) rotate(-90)"/>
    <g>
      <g id="R.2-18" data-name="R.2">
        <circle class="cls-25" cx="4610.13" cy="2155.73" r="12.83"/>
      </g>
      <g id="R.2-19" data-name="R.2">
        <circle class="cls-25" cx="5003.36" cy="2155.73" r="12.83"/>
      </g>
      <g id="R.2-20" data-name="R.2">
        <circle class="cls-25" cx="5330.72" cy="2155.73" r="12.83"/>
      </g>
      <g id="R.2-21" data-name="R.2">
        <circle class="cls-25" cx="4610.13" cy="1676" r="12.83"/>
      </g>
      <g id="R.2-22" data-name="R.2">
        <circle class="cls-25" cx="5003.36" cy="1676" r="12.83"/>
      </g>
      <g id="R.2-23" data-name="R.2">
        <circle class="cls-25" cx="5330.72" cy="1676" r="12.83"/>
      </g>
    </g>
    <path class="cls-31" d="M4592.83,1914.22c0,140.19,113.65,253.83,253.83,253.83s253.83-113.65,253.83-253.83-113.65-253.83-253.83-253.83-253.83,113.65-253.83,253.83ZM4935.16,1914.22c0,48.87-39.62,88.49-88.49,88.49s-88.49-39.62-88.49-88.49,39.62-88.49,88.49-88.49,88.49,39.62,88.49,88.49Z"/>
    <g>
      <circle id="R.2-24" data-name="R.2" class="cls-25" cx="4798.1" cy="1941.5" r="12.83"/>
      <circle id="R.2-25" data-name="R.2" class="cls-25" cx="4798.1" cy="1884.28" r="12.83"/>
      <circle id="R.2-26" data-name="R.2" class="cls-25" cx="4846.84" cy="1912.22" r="28.94"/>
      <circle id="R.2-27" data-name="R.2" class="cls-25" cx="4895.24" cy="1941.5" r="12.83"/>
      <circle id="R.2-28" data-name="R.2" class="cls-25" cx="4846.67" cy="1970.11" r="12.83"/>
      <circle id="R.2-29" data-name="R.2" class="cls-25" cx="4846.67" cy="1858.33" r="12.83"/>
      <circle id="R.2-30" data-name="R.2" class="cls-25" cx="4895.24" cy="1884.28" r="12.83"/>
    </g>
    <g>
      <path class="cls-31" d="M5060.09,2101.38l32.15-56.69,26.41,10.78v-16.1h43.36v-47.33h53.68c1.55-2.55,4.61-8.38,4.76-16.41.16-8.74-3.22-15.09-4.76-17.63-1.25-1.18-10.04-9.74-9.21-22.95.7-11.02,7.61-17.8,9.21-19.3h39.89c22.12,0,40.06,17.93,40.06,40.06v152.76c0,22.12-17.93,40.06-40.06,40.06h-157.63v-25.28l-37.85-21.96Z"/>
      <polygon class="cls-31" points="5048.78 1740.09 5079.38 1692.18 5149.88 1692.18 5173.4 1715.7 5209.34 1679.77 5312.92 1783.35 5318.42 1835.57 5257.29 1896.7 5172.2 1811.62 5141.65 1842.17 5048.78 1740.09"/>
    </g>
    <g>
      <path class="cls-28" d="M5207.5,1971.33c9.35,9.35,6.04,27.82-7.39,41.25l-19.4,19.4c-13.43,13.43-31.9,16.74-41.25,7.39-143.4-169.75-175.54-225.01-166.37-234.19,9.17-9.18,64.48,22.92,234.41,166.15Z"/>
      <circle class="cls-28" cx="4970.27" cy="1802.63" r="8.65"/>
      <circle class="cls-25" cx="5158.23" cy="1988.6" r="30.61"/>
      <circle class="cls-25" cx="5013.68" cy="1844.05" r="8.48"/>
      <rect class="cls-25" x="5082.8" y="1924.96" width="36.88" height="20.63" rx="9.1" ry="9.1" transform="translate(7339.92 6910.83) rotate(-135)"/>
      <rect class="cls-25" x="5033.56" y="1875.72" width="36.88" height="20.63" rx="9.1" ry="9.1" transform="translate(7290.68 6791.97) rotate(-135)"/>
    </g>
  </g>
  <g>
    <rect class="cls-28" x="1317.7" y="1434.3" width="1165.95" height="1303.3" rx="62.6" ry="62.6"/>
    <g>
      <rect class="cls-31" x="1785.86" y="1732.28" width="329.74" height="329.74" rx="21.28" ry="21.28"/>
      <circle class="cls-28" cx="1952.57" cy="1894.71" r="156.9"/>
      <g id="ventilador-5" data-name="ventilador">
        <path class="cls-31" d="M2098.59,1881.5c-.53-6.4-1.57-11.65-2.4-15.23-1.58-3.38-3.5-5.05-5.4-5.78-9.11-3.49-19.1,13.54-48.58,23.79-9.54,3.32-23.75,7.27-44.47,3.8-.54-2.31-1.08-4.62-1.62-6.94,5.59-2.1,13.48-5.41,22.45-10.37,21.22-11.73,33.28-24.32,37.78-29.31,12.33-13.67,14.57-19.9,14.72-24.66.05-1.38.14-4.52-.8-8.12-2.51-6.11-7.46-15.86-16.93-25.03-13.13-12.7-27.61-17.17-34.48-18.81-2.7-.21-4.48.37-5.46.92-8.5,4.78-1.78,23.34-12.74,52.57-3.55,9.46-9.58,22.91-25.49,36.64-2.12-1.06-4.25-2.12-6.37-3.19,1.96-5.65,4.45-13.82,6.37-23.89,4.53-23.82,2.56-41.14,1.59-47.79-2.64-18.22-6-23.92-9.56-27.08-1-.89-3.25-2.87-6.46-4.42-3.39-.23-6.82-.36-10.27-.36-16.2,0-31.79,2.6-46.39,7.38-1.16,1.23-1.89,2.46-2.32,3.63-3.77,10.32,14.77,18.19,25.98,48.04,3.63,9.66,7.97,24.2,4.25,46.94-2.51.96-5.02,1.92-7.54,2.88-2.3-5.64-5.91-13.53-11.33-22.31-12.81-20.77-26.53-31.59-31.96-35.58-14.89-10.93-21.67-12.3-26.84-11.68-1.11.13-3.28.4-5.92,1.18-15.98,15.04-28.64,33.58-36.75,54.39.24,2.56.96,4.43,1.93,5.8,6.33,8.97,23.37-1.78,54.29,6.01,10.01,2.52,24.43,7.24,41,23.24-.64,2.61-1.29,5.22-1.93,7.83-5.94-1.32-14.48-2.85-24.79-3.4-24.37-1.3-41.08,3.81-47.45,6-17.47,6.01-22.45,10.8-24.89,15.41-1.52,2.87-3.46,7.04-3.86,15.67-.81,17.74,5.29,33.17,11.11,43.79,4.22,5.15,7.8,6.92,10.71,7.2,10.93,1.02,13.84-18.91,39.86-37.34,8.42-5.97,21.38-13.86,44.32-16.04,1.57,2.19,3.13,4.37,4.7,6.56-4.87,3.66-11.58,9.15-18.7,16.62-16.83,17.67-23.81,33.69-26.29,39.95-6.79,17.18-6.39,24.08-4.48,28.93.84,2.13,3.3,8.36,9.4,13.12,3.29,2.57,6.23,4.05,7.93,4.79,17.95,7.74,45.58,19.65,53.43,10.67,6.43-7.36-7.14-21.11-6.67-54.21.14-10.32,1.41-25.44,13.16-45.26,2.69.02,5.38.05,8.07.07.09,6.09.57,14.75,2.41,24.9,4.36,24.01,13.18,39.09,16.78,44.78,9.88,15.61,15.69,19.36,20.73,20.67,5.75,1.49,10.45,1.05,16.14.14,16.99-2.72,28.7-11.91,32.74-15.36,5.9-5.03,24.92-21.24,20.86-32.56-3.57-9.96-21.47-5.76-48.96-23-8.56-5.37-20.53-13.97-30.8-32.3,1.47-1.87,2.93-3.74,4.4-5.61,5.14,3.05,12.65,7.13,22.14,11.02,22.44,9.21,39.8,10.73,46.5,11.12,14.61.84,21.95.51,28.44-3.95,18.38-12.63,15.5-47.11,14.69-56.91Z"/>
      </g>
      <g id="rodona-5" data-name="rodona">
        <circle class="cls-31" cx="1951.52" cy="1893.96" r="44.6"/>
        <circle class="cls-8" cx="1951.52" cy="1893.96" r="44.6"/>
      </g>
      <g id="R.2-31" data-name="R.2">
        <circle class="cls-28" cx="2096.5" cy="1748.37" r="10.26"/>
      </g>
      <g id="R.1-5" data-name="R.1">
        <circle class="cls-28" cx="1805.97" cy="1748.37" r="10.26"/>
      </g>
      <g id="R.3-5" data-name="R.3">
        <circle class="cls-28" cx="1805.97" cy="2041.21" r="10.26"/>
      </g>
      <g id="R.4-5" data-name="R.4">
        <circle class="cls-28" cx="2096.5" cy="2041.21" r="10.26"/>
      </g>
    </g>
    <g>
      <rect class="cls-31" x="2352.48" y="1489.34" width="57.26" height="785" rx="20.38" ry="20.38"/>
      <rect class="cls-25" x="2372.3" y="1525.69" width="17.62" height="712.29"/>
    </g>
    <g>
      <rect class="cls-31" x="2285.31" y="1489.34" width="40.74" height="785" rx="18.5" ry="18.5"/>
      <rect class="cls-25" x="2299.41" y="1525.69" width="12.54" height="712.29"/>
    </g>
    <g>
      <rect class="cls-31" x="1964.72" y="2028.27" width="40.74" height="681" rx="18.5" ry="18.5" transform="translate(4353.87 383.68) rotate(90)"/>
      <rect class="cls-25" x="1978.82" y="2059.81" width="12.54" height="617.93" transform="translate(4353.87 383.68) rotate(90)"/>
    </g>
    <g>
      <rect class="cls-31" x="1707.85" y="2412.82" width="40.74" height="167.38" rx="18.5" ry="18.5" transform="translate(4224.73 768.29) rotate(90)"/>
      <rect class="cls-25" x="1721.95" y="2420.57" width="12.54" height="151.88" transform="translate(4224.73 768.29) rotate(90)"/>
    </g>
    <g>
      <rect class="cls-31" x="1707.85" y="2505.32" width="40.74" height="167.38" rx="18.5" ry="18.5" transform="translate(4317.23 860.79) rotate(90)"/>
      <rect class="cls-25" x="1721.95" y="2513.07" width="12.54" height="151.88" transform="translate(4317.23 860.79) rotate(90)"/>
    </g>
    <circle class="cls-31" cx="1923.65" cy="2548.73" r="57.26"/>
    <rect class="cls-31" x="2029.12" y="2436.22" width="236.34" height="222.93" rx="36.1" ry="36.1"/>
    <rect class="cls-25" x="1555.46" y="1547.19" width="66.07" height="66.07"/>
    <rect class="cls-25" x="1555.46" y="1680.43" width="77.08" height="66.07"/>
    <rect class="cls-25" x="1555.46" y="1805.97" width="77.08" height="66.07"/>
    <g>
      <circle class="cls-25" cx="1731.97" cy="1771.94" r="24"/>
      <circle class="cls-25" cx="1731.97" cy="1854.85" r="24"/>
      <circle class="cls-25" cx="1731.97" cy="1937.76" r="24"/>
      <circle class="cls-25" cx="1731.97" cy="2020.67" r="24"/>
    </g>
    <ellipse class="cls-28" cx="1271.44" cy="2317.04" rx="18.68" ry="42.95"/>
    <rect class="cls-31" x="1267.58" y="2274.1" width="142.05" height="85.89"/>
    <rect class="cls-31" x="1289.61" y="2116.63" width="162.97" height="121.13"/>
    <rect class="cls-31" x="1313.83" y="1991.09" width="107.92" height="104.61"/>
    <path class="cls-18" d="M1341.36,2021.93h-27.53,27.53Z"/>
    <path class="cls-18" d="M1341.36,2060.47h-27.53,27.53Z"/>
    <g>
      <rect class="cls-31" x="1290.71" y="1825.92" width="96.9" height="106.81"/>
      <line class="cls-1" x1="1339.16" y1="1791.78" x2="1339.16" y2="1838.03"/>
      <line class="cls-1" x1="1301.72" y1="1799.04" x2="1338.06" y2="1799.59"/>
      <line class="cls-1" x1="1339.16" y1="1967.97" x2="1339.16" y2="1921.72"/>
      <line class="cls-1" x1="1301.72" y1="1960.71" x2="1338.06" y2="1960.16"/>
    </g>
    <g>
      <rect class="cls-31" x="1290.71" y="1572.87" width="96.9" height="148.87"/>
      <line class="cls-1" x1="1339.16" y1="1525.3" x2="1339.16" y2="1589.76"/>
      <line class="cls-1" x1="1301.72" y1="1531.81" x2="1338.06" y2="1532.57"/>
      <line class="cls-1" x1="1339.16" y1="1770.86" x2="1339.16" y2="1706.4"/>
      <line class="cls-1" x1="1301.72" y1="1764.35" x2="1338.06" y2="1763.58"/>
    </g>
  </g>
  <g class="cls-27">
    <rect class="cls-28" x="3468.08" y="1511" width="671.68" height="750.81" rx="62.6" ry="62.6"/>
    <g>
      <rect class="cls-31" x="3738.29" y="1682.91" width="189.96" height="189.96" rx="21.28" ry="21.28"/>
      <circle class="cls-28" cx="3834.33" cy="1776.49" r="90.39"/>
      <g id="ventilador-6" data-name="ventilador">
        <path class="cls-31" d="M3918.45,1768.88c-.31-3.69-.9-6.71-1.38-8.77-.91-1.95-2.01-2.91-3.11-3.33-5.25-2.01-11,7.8-27.99,13.7-5.5,1.91-13.68,4.19-25.62,2.19-.31-1.33-.62-2.66-.93-4,3.22-1.21,7.77-3.11,12.93-5.97,12.23-6.76,19.17-14.01,21.76-16.88,7.1-7.88,8.39-11.46,8.48-14.2.03-.8.08-2.6-.46-4.68-1.45-3.52-4.3-9.14-9.75-14.42-7.56-7.32-15.9-9.89-19.86-10.83-1.56-.12-2.58.22-3.15.53-4.9,2.75-1.03,13.45-7.34,30.28-2.04,5.45-5.52,13.2-14.68,21.11-1.22-.61-2.45-1.22-3.67-1.84,1.13-3.25,2.57-7.96,3.67-13.76,2.61-13.72,1.47-23.7.92-27.53-1.52-10.5-3.46-13.78-5.51-15.6-.58-.51-1.87-1.65-3.72-2.55-1.96-.13-3.93-.21-5.92-.21-9.33,0-18.31,1.5-26.73,4.25-.67.71-1.09,1.42-1.33,2.09-2.17,5.94,8.51,10.48,14.97,27.68,2.09,5.57,4.59,13.94,2.45,27.04-1.45.55-2.89,1.11-4.34,1.66-1.33-3.25-3.4-7.79-6.52-12.85-7.38-11.96-15.28-18.2-18.41-20.5-8.58-6.3-12.48-7.09-15.46-6.73-.64.08-1.89.23-3.41.68-9.21,8.67-16.5,19.34-21.17,31.33.14,1.48.55,2.55,1.11,3.34,3.65,5.17,13.46-1.02,31.27,3.46,5.77,1.45,14.07,4.17,23.62,13.39-.37,1.5-.74,3.01-1.11,4.51-3.42-.76-8.34-1.64-14.28-1.96-14.04-.75-23.66,2.2-27.33,3.46-10.06,3.46-12.94,6.22-14.34,8.88-.88,1.65-2,4.06-2.22,9.03-.47,10.22,3.05,19.11,6.4,25.23,2.43,2.96,4.49,3.99,6.17,4.15,6.3.59,7.97-10.89,22.96-21.51,4.85-3.44,12.32-7.98,25.53-9.24.9,1.26,1.8,2.52,2.71,3.78-2.8,2.11-6.67,5.27-10.77,9.58-9.7,10.18-13.72,19.41-15.14,23.02-3.91,9.9-3.68,13.87-2.58,16.67.48,1.23,1.9,4.81,5.41,7.56,1.9,1.48,3.59,2.34,4.57,2.76,10.34,4.46,26.26,11.32,30.78,6.15,3.71-4.24-4.11-12.16-3.84-31.23.08-5.95.81-14.66,7.58-26.07,1.55.01,3.1.03,4.65.04.05,3.51.33,8.5,1.39,14.35,2.51,13.83,7.59,22.52,9.67,25.8,5.69,8.99,9.04,11.15,11.94,11.91,3.31.86,6.02.6,9.3.08,9.79-1.57,16.53-6.86,18.86-8.85,3.4-2.9,14.36-12.24,12.02-18.75-2.06-5.74-12.37-3.32-28.2-13.25-4.93-3.09-11.83-8.05-17.74-18.61.84-1.08,1.69-2.15,2.53-3.23,2.96,1.75,7.29,4.11,12.75,6.35,12.93,5.3,22.93,6.18,26.79,6.4,8.42.48,12.65.3,16.39-2.27,10.59-7.28,8.93-27.14,8.46-32.78Z"/>
      </g>
      <g id="rodona-6" data-name="rodona">
        <circle class="cls-31" cx="3833.73" cy="1776.06" r="25.69"/>
        <circle class="cls-21" cx="3833.73" cy="1776.06" r="25.69"/>
      </g>
      <g id="R.2-32" data-name="R.2">
        <circle class="cls-28" cx="3917.25" cy="1692.18" r="5.91"/>
      </g>
      <g id="R.1-6" data-name="R.1">
        <circle class="cls-28" cx="3749.88" cy="1692.18" r="5.91"/>
      </g>
      <g id="R.3-6" data-name="R.3">
        <circle class="cls-28" cx="3749.88" cy="1860.89" r="5.91"/>
      </g>
      <g id="R.4-6" data-name="R.4">
        <circle class="cls-28" cx="3917.25" cy="1860.89" r="5.91"/>
      </g>
    </g>
    <g>
      <rect class="cls-31" x="4064.71" y="1542.96" width="32.99" height="452.23" rx="16.49" ry="16.49"/>
      <rect class="cls-25" x="4076.13" y="1563.9" width="10.15" height="410.34"/>
    </g>
    <g>
      <rect class="cls-31" x="4026.02" y="1542.96" width="23.47" height="452.23" rx="11.74" ry="11.74"/>
      <rect class="cls-25" x="4034.14" y="1563.9" width="7.22" height="410.34"/>
    </g>
    <g>
      <rect class="cls-31" x="3841.33" y="1853.43" width="23.47" height="392.31" rx="11.74" ry="11.74" transform="translate(5902.66 -1803.48) rotate(90)"/>
      <rect class="cls-25" x="3849.46" y="1871.6" width="7.22" height="355.98" transform="translate(5902.66 -1803.48) rotate(90)"/>
    </g>
    <g>
      <rect class="cls-31" x="3693.35" y="2074.96" width="23.47" height="96.42" rx="11.74" ry="11.74" transform="translate(5828.26 -1581.91) rotate(90)"/>
      <rect class="cls-25" x="3701.48" y="2079.43" width="7.22" height="87.49" transform="translate(5828.26 -1581.91) rotate(90)"/>
    </g>
    <g>
      <rect class="cls-31" x="3693.35" y="2128.25" width="23.47" height="96.42" rx="11.74" ry="11.74" transform="translate(5881.55 -1528.63) rotate(90)"/>
      <rect class="cls-25" x="3701.48" y="2132.71" width="7.22" height="87.49" transform="translate(5881.55 -1528.63) rotate(90)"/>
    </g>
    <circle class="cls-31" cx="3817.67" cy="2153.26" r="32.99"/>
    <rect class="cls-31" x="3878.43" y="2088.44" width="136.15" height="128.42" rx="36.1" ry="36.1"/>
    <rect class="cls-25" x="3605.57" y="1576.29" width="38.06" height="38.06"/>
    <rect class="cls-25" x="3605.57" y="1653.05" width="44.41" height="38.06"/>
    <rect class="cls-25" x="3605.57" y="1725.36" width="44.41" height="38.06"/>
    <g>
      <circle class="cls-25" cx="3707.25" cy="1705.76" r="13.83"/>
      <circle class="cls-25" cx="3707.25" cy="1753.52" r="13.83"/>
      <circle class="cls-25" cx="3707.25" cy="1801.29" r="13.83"/>
      <circle class="cls-25" cx="3707.25" cy="1849.05" r="13.83"/>
    </g>
    <ellipse class="cls-28" cx="3441.94" cy="2019.79" rx="10.76" ry="24.74"/>
    <rect class="cls-31" x="3439.72" y="1995.05" width="81.83" height="49.48"/>
    <rect class="cls-31" x="3452.41" y="1904.33" width="93.89" height="69.78"/>
    <rect class="cls-31" x="3466.37" y="1832.01" width="62.17" height="60.27"/>
    <path class="cls-3" d="M3482.23,1849.78h-15.86,15.86Z"/>
    <path class="cls-3" d="M3482.23,1871.98h-15.86,15.86Z"/>
    <g>
      <rect class="cls-31" x="3453.05" y="1736.86" width="55.82" height="61.53"/>
      <line class="cls-22" x1="3480.96" y1="1717.19" x2="3480.96" y2="1743.84"/>
      <line class="cls-22" x1="3459.39" y1="1721.37" x2="3480.32" y2="1721.69"/>
      <line class="cls-22" x1="3480.96" y1="1818.69" x2="3480.96" y2="1792.05"/>
      <line class="cls-22" x1="3459.39" y1="1814.51" x2="3480.32" y2="1814.19"/>
    </g>
    <g>
      <rect class="cls-31" x="3453.05" y="1591.08" width="55.82" height="85.76"/>
      <line class="cls-22" x1="3480.96" y1="1563.67" x2="3480.96" y2="1600.81"/>
      <line class="cls-22" x1="3459.39" y1="1567.43" x2="3480.32" y2="1567.87"/>
      <line class="cls-22" x1="3480.96" y1="1705.14" x2="3480.96" y2="1668"/>
      <line class="cls-22" x1="3459.39" y1="1701.39" x2="3480.32" y2="1700.95"/>
    </g>
  </g>
  <g>
    <g>
      <rect class="cls-12" x="357.04" y="2241.28" width="261.35" height="127.28" rx="63.64" ry="63.64"/>
      <rect class="cls-12" x="745.67" y="2241.28" width="261.35" height="127.28" rx="63.64" ry="63.64"/>
    </g>
    <polygon class="cls-28" points="1090.54 2262.3 804.09 2262.3 786.91 2279.47 566.3 2279.47 545.25 2258.43 168.6 2258.43 168.6 2317.3 146.5 2317.3 146.5 2258.43 104.22 2258.43 85.52 2277.13 85.52 2301.72 66.7 2301.72 68.29 2287.86 5.93 2287.86 5.93 2291.51 63.51 2291.51 63.51 2753.07 84.5 2753.07 84.5 2794.57 161.33 2794.57 161.33 2745.89 249.84 2745.89 249.84 2789.38 288.02 2789.38 288.02 2749.48 306.5 2749.48 306.5 2815.72 360.7 2815.72 360.7 2771.83 374.33 2771.83 374.33 2815.72 720.67 2815.72 720.67 2771.03 736.63 2771.03 736.63 2797.36 792.49 2797.36 792.49 2778.21 766.55 2778.21 766.55 2749.48 1083.76 2749.48 1151.59 2704.8 1151.59 2305.87 1090.54 2262.3"/>
    <circle class="cls-25" cx="418.32" cy="2513.82" r="212.27"/>
    <g>
      <g>
        <path class="cls-28" d="M387.33,2639.48c-6.17-27.18-3.57-50.17-.9-63.86,7.36,1.45,14.72,2.9,22.08,4.35-.85,12.16-.4,28.67,5.1,47.01,12.73,42.45,44.03,66.62,58.89,76.32,21.39-6.15,41.28-15.82,59.01-28.35-16.08-3.78-44.4-13.1-70.48-37.31-20.42-18.97-31.24-39.42-36.75-52.23,6.9-2.95,13.79-5.9,20.69-8.86,6.15,10.53,15.83,23.9,30.72,35.95,34.47,27.9,74,30.19,91.71,29.82,13.97-16.23,25.33-34.77,33.45-54.96-15.63,5.54-44.32,12.91-79.1,6.75-27.45-4.86-47.63-16.18-59.2-23.95,4.19-6.22,8.39-12.44,12.58-18.66,10.88,5.51,26.26,11.49,45.3,13.54,43.67,4.7,77.86-14.38,92.78-24.39,1.19-8.77,1.82-17.73,1.82-26.83,0-12.09-1.09-23.92-3.18-35.41-10.05,13.2-29.99,35.08-62.45,48.99-25.62,10.98-48.7,12.57-62.65,12.42.1-7.5.19-15,.29-22.51,12.12-1.36,28.27-4.78,45.31-13.5,39.96-20.44,58.03-56.25,64.68-72.33-8.92-19.38-20.9-37.07-35.31-52.44-1.21,16.21-5.97,46.32-26.55,76.42-15.73,23.01-34.36,36.74-46.21,44.09-3.94-6.38-7.88-12.77-11.83-19.15,9.5-7.65,21.29-19.2,31-35.7,23.45-39.86,18.54-81.02,15.53-97.24-16.44-10.47-34.53-18.57-53.8-23.83,6.49,14.41,17.19,43.95,12.97,81.39-3.12,27.7-13.15,48.55-20.18,60.59-6.47-3.79-12.94-7.59-19.42-11.38,4.81-11.2,9.82-26.93,10.67-46.06,1.96-44.21-19.57-77.31-30.42-91.39-1.86-.05-3.73-.08-5.61-.08-19.88,0-39.08,2.96-57.17,8.43,13.56,8.7,38.05,27.36,54.8,60.19,12.66,24.83,15.79,47.76,16.56,61.68-7.49.4-14.98.8-22.47,1.21-2.16-12-6.65-27.89-16.49-44.32-22.81-38.09-59.2-53.82-75.94-59.55-19.72,11.74-37.21,26.82-51.7,44.46,15.29-.68,47.58.1,81.63,18.7,24.46,13.36,39.98,30.53,48.47,41.59-5.96,4.56-11.92,9.12-17.88,13.67-8.55-8.69-21.22-19.27-38.61-27.29-43.31-19.96-84.99-9.79-99.71-5.35-9.47,20.17-15.63,42.21-17.76,65.41,12.38-10.15,40.62-30.2,78.83-33.59,22.93-2.03,48.48,6.16,60.59,9.96-.55,6.87-7.75,9.73-8.3,16.6-11.37-1.85-25.92-2.74-42.33,0-46.02,7.68-76.35,40.07-87.58,53.85,3.28,22.59,10.39,43.94,20.65,63.37,7.5-20.52,30.99-74.17,80.22-87.35,5.99-1.6,12.76-2.71,20.33-2.91,2.95,6.23,5.91,12.46,8.86,18.69-10.78,4.09-23.83,10.59-36.67,21.15-34.9,28.7-45.02,68.27-48.16,86.58,14.35,16.77,31.46,31.1,50.63,42.29-3.05-16.69-5.41-44.84,5.07-76.69,8.72-26.47,22.8-44.84,32.14-55.19,5.56,5.04,11.12,10.07,16.68,15.11-7,9.98-15.12,24.36-19.86,42.91-10.32,40.39,1.79,75.39,9.7,92.69,17.6,5.15,36.22,7.93,55.49,7.93,2.45,0,4.89-.06,7.32-.15-11.07-11.94-29.83-35.87-37.89-71.33Z"/>
        <circle class="cls-31" cx="419.15" cy="2513.82" r="75.53"/>
      </g>
      <circle class="cls-25" cx="898.72" cy="2513.82" r="212.27"/>
      <g>
        <path class="cls-28" d="M867.73,2639.48c-6.17-27.18-3.57-50.17-.9-63.86,7.36,1.45,14.72,2.9,22.08,4.35-.85,12.16-.4,28.67,5.1,47.01,12.73,42.45,44.03,66.62,58.89,76.32,21.39-6.15,41.28-15.82,59.01-28.35-16.08-3.78-44.4-13.1-70.48-37.31-20.42-18.97-31.24-39.42-36.75-52.23,6.9-2.95,13.79-5.9,20.69-8.86,6.15,10.53,15.83,23.9,30.72,35.95,34.47,27.9,74,30.19,91.71,29.82,13.97-16.23,25.33-34.77,33.45-54.96-15.63,5.54-44.32,12.91-79.1,6.75-27.45-4.86-47.63-16.18-59.2-23.95,4.19-6.22,8.39-12.44,12.58-18.66,10.88,5.51,26.26,11.49,45.3,13.54,43.67,4.7,77.86-14.38,92.78-24.39,1.19-8.77,1.82-17.73,1.82-26.83,0-12.09-1.09-23.92-3.18-35.41-10.05,13.2-29.99,35.08-62.45,48.99-25.62,10.98-48.7,12.57-62.65,12.42.1-7.5.19-15,.29-22.51,12.12-1.36,28.27-4.78,45.31-13.5,39.96-20.44,58.03-56.25,64.68-72.33-8.92-19.38-20.9-37.07-35.31-52.44-1.21,16.21-5.97,46.32-26.55,76.42-15.73,23.01-34.36,36.74-46.21,44.09-3.94-6.38-7.88-12.77-11.83-19.15,9.5-7.65,21.29-19.2,31-35.7,23.45-39.86,18.54-81.02,15.53-97.24-16.44-10.47-34.53-18.57-53.8-23.83,6.49,14.41,17.19,43.95,12.97,81.39-3.12,27.7-13.15,48.55-20.18,60.59-6.47-3.79-12.94-7.59-19.42-11.38,4.81-11.2,9.82-26.93,10.67-46.06,1.96-44.21-19.57-77.31-30.42-91.39-1.86-.05-3.73-.08-5.61-.08-19.88,0-39.08,2.96-57.17,8.43,13.56,8.7,38.05,27.36,54.8,60.19,12.66,24.83,15.79,47.76,16.56,61.68-7.49.4-14.98.8-22.47,1.21-2.16-12-6.65-27.89-16.49-44.32-22.81-38.09-59.2-53.82-75.94-59.55-19.72,11.74-37.21,26.82-51.7,44.46,15.29-.68,47.58.1,81.63,18.7,24.46,13.36,39.98,30.53,48.47,41.59-5.96,4.56-11.92,9.12-17.88,13.67-8.55-8.69-21.22-19.27-38.61-27.29-43.31-19.96-84.99-9.79-99.71-5.35-9.47,20.17-15.63,42.21-17.76,65.41,12.38-10.15,40.62-30.2,78.83-33.59,22.93-2.03,48.48,6.16,60.59,9.96-.55,6.87-7.75,9.73-8.3,16.6-11.37-1.85-25.92-2.74-42.33,0-46.02,7.68-76.35,40.07-87.58,53.85,3.28,22.59,10.39,43.94,20.65,63.37,7.5-20.52,30.99-74.17,80.22-87.35,5.99-1.6,12.76-2.71,20.33-2.91,2.95,6.23,5.91,12.46,8.86,18.69-10.78,4.09-23.83,10.59-36.67,21.15-34.9,28.7-45.02,68.27-48.16,86.58,14.35,16.77,31.46,31.1,50.63,42.29-3.05-16.69-5.41-44.84,5.07-76.69,8.72-26.47,22.8-44.84,32.14-55.19,5.56,5.04,11.12,10.07,16.68,15.11-7,9.98-15.12,24.36-19.86,42.91-10.32,40.39,1.79,75.39,9.7,92.69,17.6,5.15,36.22,7.93,55.49,7.93,2.45,0,4.89-.06,7.32-.15-11.07-11.94-29.83-35.87-37.89-71.33Z"/>
        <circle class="cls-31" cx="899.55" cy="2513.82" r="75.53"/>
      </g>
    </g>
    <rect class="cls-31" x="63.38" y="2341.43" width="86.18" height="86.18"/>
    <rect class="cls-31" x="63.38" y="2442.78" width="86.18" height="86.18"/>
    <rect class="cls-31" x="53.8" y="2573.25" width="128.48" height="128.48"/>
    <rect class="cls-31" x="37.04" y="2548.12" width="26.33" height="26.33"/>
    <rect class="cls-31" x="45.82" y="2686.17" width="26.33" height="26.33"/>
    <rect class="cls-25" x="309.96" y="2803.48" width="47.88" height="9.58"/>
    <rect class="cls-25" x="376.99" y="2803.48" width="340.75" height="9.58"/>
    <circle class="cls-25" cx="106.87" cy="2284.77" r="12.37"/>
  </g>
  <g class="cls-40">
    <g>
      <rect class="cls-2" x="6045.18" y="697.63" width="233.83" height="113.88" rx="56.94" ry="56.94"/>
      <rect class="cls-2" x="6392.9" y="697.63" width="233.83" height="113.88" rx="56.94" ry="56.94"/>
    </g>
    <polygon class="cls-28" points="6701.46 716.43 6445.16 716.43 6429.8 731.8 6232.41 731.8 6213.58 712.97 5876.58 712.97 5876.58 765.64 5856.8 765.64 5856.8 712.97 5818.98 712.97 5802.24 729.7 5802.24 751.7 5785.4 751.7 5786.83 739.3 5731.03 739.3 5731.03 742.57 5782.55 742.57 5782.55 1155.54 5801.33 1155.54 5801.33 1192.67 5870.08 1192.67 5870.08 1149.12 5949.27 1149.12 5949.27 1188.03 5983.42 1188.03 5983.42 1152.33 5999.96 1152.33 5999.96 1211.59 6048.46 1211.59 6048.46 1172.32 6060.65 1172.32 6060.65 1211.59 6370.53 1211.59 6370.53 1171.61 6384.81 1171.61 6384.81 1195.17 6434.79 1195.17 6434.79 1178.03 6411.58 1178.03 6411.58 1152.33 6695.39 1152.33 6756.08 1112.35 6756.08 755.42 6701.46 716.43"/>
    <circle class="cls-25" cx="6100.01" cy="941.48" r="189.92"/>
    <g>
      <g>
        <path class="cls-28" d="M6072.28,1053.9c-5.52-24.32-3.19-44.89-.81-57.14,6.59,1.3,13.17,2.6,19.76,3.89-.76,10.88-.36,25.65,4.56,42.06,11.39,37.98,39.4,59.6,52.69,68.28,19.13-5.5,36.93-14.16,52.8-25.37-14.39-3.38-39.73-11.72-63.06-33.38-18.27-16.97-27.95-35.27-32.88-46.73,6.17-2.64,12.34-5.28,18.51-7.92,5.51,9.42,14.16,21.38,27.48,32.16,30.84,24.97,66.21,27.01,82.06,26.68,12.5-14.53,22.66-31.11,29.93-49.17-13.99,4.95-39.65,11.55-70.78,6.04-24.56-4.35-42.61-14.48-52.97-21.43,3.75-5.57,7.5-11.13,11.26-16.7,9.73,4.93,23.5,10.28,40.53,12.12,39.07,4.21,69.66-12.87,83.02-21.82,1.07-7.85,1.63-15.86,1.63-24,0-10.82-.98-21.4-2.84-31.68-8.99,11.81-26.83,31.38-55.87,43.83-22.92,9.83-43.58,11.25-56.05,11.11.09-6.71.17-13.42.26-20.14,10.84-1.21,25.29-4.28,40.54-12.08,35.75-18.29,51.92-50.33,57.87-64.71-7.98-17.34-18.7-33.16-31.59-46.92-1.08,14.5-5.34,41.44-23.75,68.37-14.07,20.59-30.74,32.87-41.34,39.44-3.53-5.71-7.05-11.42-10.58-17.13,8.5-6.84,19.05-17.18,27.74-31.95,20.98-35.66,16.59-72.5,13.89-87-14.71-9.37-30.9-16.61-48.14-21.32,5.81,12.89,15.38,39.32,11.6,72.82-2.79,24.78-11.77,43.44-18.06,54.21-5.79-3.39-11.58-6.79-17.37-10.18,4.31-10.02,8.79-24.1,9.55-41.22,1.75-39.55-17.51-69.17-27.22-81.77-1.67-.05-3.34-.08-5.02-.08-17.79,0-34.96,2.64-51.15,7.54,12.14,7.79,34.05,24.48,49.03,53.86,11.33,22.22,14.12,42.73,14.82,55.19-6.7.36-13.41.72-20.11,1.08-1.93-10.74-5.95-24.95-14.75-39.65-20.41-34.08-52.96-48.15-67.94-53.28-17.64,10.51-33.3,23.99-46.26,39.78,13.68-.61,42.57.09,73.04,16.73,21.89,11.95,35.77,27.32,43.37,37.21-5.33,4.08-10.66,8.16-16,12.23-7.65-7.78-18.99-17.24-34.55-24.42-38.75-17.86-76.05-8.76-89.21-4.78-8.48,18.05-13.98,37.76-15.89,58.52,11.08-9.08,36.34-27.02,70.53-30.06,20.52-1.82,43.38,5.51,54.21,8.91-.5,6.15-6.93,8.7-7.43,14.85-10.17-1.65-23.19-2.45-37.88,0-41.18,6.87-68.32,35.86-78.36,48.19,2.93,20.22,9.29,39.32,18.47,56.7,6.71-18.36,27.73-66.36,71.77-78.15,5.36-1.43,11.41-2.43,18.19-2.6,2.64,5.58,5.29,11.15,7.93,16.73-9.65,3.66-21.32,9.47-32.81,18.92-31.23,25.68-40.28,61.09-43.09,77.47,12.84,15.01,28.15,27.83,45.3,37.84-2.73-14.93-4.84-40.12,4.54-68.61,7.8-23.69,20.4-40.12,28.75-49.38,4.98,4.51,9.95,9.01,14.93,13.52-6.26,8.93-13.53,21.79-17.77,38.4-9.23,36.13,1.6,67.45,8.68,82.93,15.75,4.61,32.41,7.1,49.65,7.1,2.19,0,4.37-.05,6.55-.13-9.91-10.68-26.69-32.1-33.9-63.83Z"/>
        <circle class="cls-31" cx="6100.75" cy="941.48" r="67.58"/>
      </g>
      <circle class="cls-25" cx="6529.84" cy="941.48" r="189.92"/>
      <g>
        <path class="cls-28" d="M6502.1,1053.9c-5.52-24.32-3.19-44.89-.81-57.14,6.59,1.3,13.17,2.6,19.76,3.89-.76,10.88-.36,25.65,4.56,42.06,11.39,37.98,39.4,59.6,52.69,68.28,19.13-5.5,36.93-14.16,52.8-25.37-14.39-3.38-39.73-11.72-63.06-33.38-18.27-16.97-27.95-35.27-32.88-46.73,6.17-2.64,12.34-5.28,18.51-7.92,5.51,9.42,14.16,21.38,27.48,32.16,30.84,24.97,66.21,27.01,82.06,26.68,12.5-14.53,22.66-31.11,29.93-49.17-13.99,4.95-39.65,11.55-70.78,6.04-24.56-4.35-42.61-14.48-52.97-21.43,3.75-5.57,7.5-11.13,11.26-16.7,9.73,4.93,23.5,10.28,40.53,12.12,39.07,4.21,69.66-12.87,83.02-21.82,1.07-7.85,1.63-15.86,1.63-24,0-10.82-.98-21.4-2.84-31.68-8.99,11.81-26.83,31.38-55.87,43.83-22.92,9.83-43.58,11.25-56.05,11.11.09-6.71.17-13.42.26-20.14,10.84-1.21,25.29-4.28,40.54-12.08,35.75-18.29,51.92-50.33,57.87-64.71-7.98-17.34-18.7-33.16-31.59-46.92-1.08,14.5-5.34,41.44-23.75,68.37-14.07,20.59-30.74,32.87-41.34,39.44-3.53-5.71-7.05-11.42-10.58-17.13,8.5-6.84,19.05-17.18,27.74-31.95,20.98-35.66,16.59-72.5,13.89-87-14.71-9.37-30.9-16.61-48.14-21.32,5.81,12.89,15.38,39.32,11.6,72.82-2.79,24.78-11.77,43.44-18.06,54.21-5.79-3.39-11.58-6.79-17.37-10.18,4.31-10.02,8.79-24.1,9.55-41.22,1.75-39.55-17.51-69.17-27.22-81.77-1.67-.05-3.34-.08-5.02-.08-17.79,0-34.96,2.64-51.15,7.54,12.14,7.79,34.05,24.48,49.03,53.86,11.33,22.22,14.12,42.73,14.82,55.19-6.7.36-13.41.72-20.11,1.08-1.93-10.74-5.95-24.95-14.75-39.65-20.41-34.08-52.96-48.15-67.94-53.28-17.64,10.51-33.3,23.99-46.26,39.78,13.68-.61,42.57.09,73.04,16.73,21.89,11.95,35.77,27.32,43.37,37.21-5.33,4.08-10.66,8.16-16,12.23-7.65-7.78-18.99-17.24-34.55-24.42-38.75-17.86-76.05-8.76-89.21-4.78-8.48,18.05-13.98,37.76-15.89,58.52,11.08-9.08,36.34-27.02,70.53-30.06,20.52-1.82,43.38,5.51,54.21,8.91-.5,6.15-6.93,8.7-7.43,14.85-10.17-1.65-23.19-2.45-37.88,0-41.18,6.87-68.32,35.86-78.36,48.19,2.93,20.22,9.29,39.32,18.47,56.7,6.71-18.36,27.73-66.36,71.77-78.15,5.36-1.43,11.41-2.43,18.19-2.6,2.64,5.58,5.29,11.15,7.93,16.73-9.65,3.66-21.32,9.47-32.81,18.92-31.23,25.68-40.28,61.09-43.09,77.47,12.84,15.01,28.15,27.83,45.3,37.84-2.73-14.93-4.84-40.12,4.54-68.61,7.8-23.69,20.4-40.12,28.75-49.38,4.98,4.51,9.95,9.01,14.93,13.52-6.26,8.93-13.53,21.79-17.77,38.4-9.23,36.13,1.6,67.45,8.68,82.93,15.75,4.61,32.41,7.1,49.65,7.1,2.19,0,4.37-.05,6.55-.13-9.91-10.68-26.69-32.1-33.9-63.83Z"/>
        <circle class="cls-31" cx="6530.58" cy="941.48" r="67.58"/>
      </g>
    </g>
    <rect class="cls-31" x="5782.43" y="787.23" width="77.11" height="77.11"/>
    <rect class="cls-31" x="5782.43" y="877.91" width="77.11" height="77.11"/>
    <rect class="cls-31" x="5773.86" y="994.65" width="114.95" height="114.95"/>
    <rect class="cls-31" x="5758.87" y="972.16" width="23.56" height="23.56"/>
    <rect class="cls-31" x="5766.72" y="1095.68" width="23.56" height="23.56"/>
    <rect class="cls-25" x="6003.06" y="1200.64" width="42.84" height="8.57"/>
    <rect class="cls-25" x="6063.03" y="1200.64" width="304.88" height="8.57"/>
    <circle class="cls-25" cx="5821.34" cy="736.54" r="11.07"/>
  </g>
  <g>
    <rect class="cls-28" x="2229.69" y="158.5" width="459.13" height="1137" rx="45.31" ry="45.31"/>
    <rect class="cls-31" x="2252.15" y="189.27" width="414.21" height="119.77"/>
    <rect class="cls-31" x="2252.15" y="328.18" width="414.21" height="111.45"/>
    <rect class="cls-31" x="2252.15" y="453.77" width="414.21" height="111.45"/>
    <rect class="cls-31" x="2252.15" y="581.86" width="414.21" height="111.45" rx="34.59" ry="34.59"/>
    <g>
      <rect class="cls-25" x="2365.27" y="624.28" width="57.39" height="26.62"/>
      <rect class="cls-25" x="2430.98" y="624.28" width="26.62" height="26.62" rx="13.31" ry="13.31" transform="translate(4888.57 1275.17) rotate(-180)"/>
      <rect class="cls-25" x="2463.42" y="624.28" width="26.62" height="26.62" rx="13.31" ry="13.31" transform="translate(4953.45 1275.17) rotate(180)"/>
      <rect class="cls-25" x="2495.85" y="624.28" width="57.39" height="26.62"/>
    </g>
    <circle class="cls-20" cx="2459.26" cy="834.71" r="39.92"/>
    <circle class="cls-16" cx="2459.08" cy="920.8" r="18.3"/>
  </g>
  <g class="cls-45">
    <rect class="cls-28" x="7247.83" y="1478.84" width="354.25" height="877.28" rx="45.31" ry="45.31"/>
    <rect class="cls-31" x="7265.16" y="1502.59" width="319.59" height="92.41"/>
    <rect class="cls-31" x="7265.16" y="1609.76" width="319.59" height="86"/>
    <rect class="cls-31" x="7265.16" y="1706.67" width="319.59" height="86"/>
    <rect class="cls-31" x="7265.16" y="1805.5" width="319.59" height="86" rx="34.59" ry="34.59"/>
    <g>
      <rect class="cls-25" x="7352.44" y="1838.23" width="44.28" height="20.54"/>
      <rect class="cls-25" x="7403.14" y="1838.23" width="20.54" height="20.54" rx="10.27" ry="10.27" transform="translate(14826.81 3696.99) rotate(180)"/>
      <rect class="cls-25" x="7428.16" y="1838.23" width="20.54" height="20.54" rx="10.27" ry="10.27" transform="translate(14876.87 3696.99) rotate(180)"/>
      <rect class="cls-25" x="7453.19" y="1838.23" width="44.28" height="20.54"/>
    </g>
    <circle class="cls-10" cx="7424.96" cy="2000.59" r="30.8"/>
    <circle class="cls-7" cx="7424.82" cy="2067.01" r="14.12"/>
  </g>
  <g>
    <path class="cls-28" d="M1144.25,3066.66c.7,0,1.38.06,2.05.15v-112.81H14.22v112.81c.67-.09,1.35-.15,2.05-.15,8.67,0,15.7,7.03,15.7,15.7s-7.03,15.7-15.7,15.7c-.7,0-1.38-.06-2.05-.15v24.89c.67-.09,1.35-.15,2.05-.15,8.67,0,15.7,7.03,15.7,15.7s-7.03,15.7-15.7,15.7c-.7,0-1.38-.06-2.05-.15v54.09h457.47v-30.04h16.39v30.04h658.22v-54.09c-.67.09-1.35.15-2.05.15-8.67,0-15.7-7.03-15.7-15.7s7.03-15.7,15.7-15.7c.7,0,1.38.06,2.05.15v-24.89c-.67.09-1.35.15-2.05.15-8.67,0-15.7-7.03-15.7-15.7s7.03-15.7,15.7-15.7Z"/>
    <g>
      <rect class="cls-31" x="78.4" y="2964.92" width="107.88" height="195.28"/>
      <rect class="cls-31" x="199.94" y="2964.92" width="107.88" height="195.28"/>
      <rect class="cls-31" x="321.48" y="2964.92" width="107.88" height="195.28"/>
      <rect class="cls-31" x="443.02" y="2964.92" width="107.88" height="195.28"/>
      <rect class="cls-25" x="97.52" y="2999.06" width="76.47" height="128.37"/>
      <rect class="cls-25" x="216.33" y="2999.06" width="76.47" height="128.37"/>
      <rect class="cls-25" x="340.6" y="2999.06" width="76.47" height="128.37"/>
      <rect class="cls-25" x="459.4" y="2999.06" width="76.47" height="128.37"/>
      <rect class="cls-31" x="609.62" y="2964.92" width="107.88" height="195.28"/>
      <rect class="cls-31" x="731.16" y="2964.92" width="107.88" height="195.28"/>
      <rect class="cls-31" x="852.69" y="2964.92" width="107.88" height="195.28"/>
      <rect class="cls-31" x="974.23" y="2964.92" width="107.88" height="195.28"/>
      <rect class="cls-25" x="628.74" y="2999.06" width="76.47" height="128.37"/>
      <rect class="cls-25" x="747.54" y="2999.06" width="76.47" height="128.37"/>
      <rect class="cls-25" x="871.81" y="2999.06" width="76.47" height="128.37"/>
      <rect class="cls-25" x="990.62" y="2999.06" width="76.47" height="128.37"/>
    </g>
    <circle class="cls-25" cx="34.7" cy="3191.61" r="10.92"/>
    <circle class="cls-25" cx="1124.45" cy="3191.61" r="10.92"/>
    <rect class="cls-25" x="56.55" y="3188.88" width="411.04" height="13.66"/>
    <rect class="cls-25" x="499" y="3188.88" width="604.96" height="13.66"/>
  </g>
  <g class="cls-41">
    <path class="cls-28" d="M7935.78,2711.47c.62,0,1.23.05,1.83.13v-100.93h-1012.9v100.93c.6-.08,1.21-.13,1.83-.13,7.76,0,14.05,6.29,14.05,14.05s-6.29,14.05-14.05,14.05c-.62,0-1.23-.05-1.83-.13v22.27c.6-.08,1.21-.13,1.83-.13,7.76,0,14.05,6.29,14.05,14.05s-6.29,14.05-14.05,14.05c-.62,0-1.23-.05-1.83-.13v48.39h409.31v-26.88h14.66v26.88h588.92v-48.39c-.6.08-1.21.13-1.83.13-7.76,0-14.05-6.29-14.05-14.05s6.29-14.05,14.05-14.05c.62,0,1.23.05,1.83.13v-22.27c-.6.08-1.21.13-1.83.13-7.76,0-14.05-6.29-14.05-14.05s6.29-14.05,14.05-14.05Z"/>
    <g>
      <rect class="cls-31" x="6982.14" y="2620.45" width="96.52" height="174.72"/>
      <rect class="cls-31" x="7090.88" y="2620.45" width="96.52" height="174.72"/>
      <rect class="cls-31" x="7199.62" y="2620.45" width="96.52" height="174.72"/>
      <rect class="cls-31" x="7308.37" y="2620.45" width="96.52" height="174.72"/>
      <rect class="cls-25" x="6999.24" y="2650.99" width="68.42" height="114.85"/>
      <rect class="cls-25" x="7105.54" y="2650.99" width="68.42" height="114.85"/>
      <rect class="cls-25" x="7216.73" y="2650.99" width="68.42" height="114.85"/>
      <rect class="cls-25" x="7323.03" y="2650.99" width="68.42" height="114.85"/>
      <rect class="cls-31" x="7457.43" y="2620.45" width="96.52" height="174.72"/>
      <rect class="cls-31" x="7566.17" y="2620.45" width="96.52" height="174.72"/>
      <rect class="cls-31" x="7674.91" y="2620.45" width="96.52" height="174.72"/>
      <rect class="cls-31" x="7783.66" y="2620.45" width="96.52" height="174.72"/>
      <rect class="cls-25" x="7474.53" y="2650.99" width="68.42" height="114.85"/>
      <rect class="cls-25" x="7580.83" y="2650.99" width="68.42" height="114.85"/>
      <rect class="cls-25" x="7692.02" y="2650.99" width="68.42" height="114.85"/>
      <rect class="cls-25" x="7798.32" y="2650.99" width="68.42" height="114.85"/>
    </g>
    <circle class="cls-25" cx="6943.04" cy="2823.27" r="9.77"/>
    <circle class="cls-25" cx="7918.06" cy="2823.27" r="9.77"/>
    <rect class="cls-25" x="6962.59" y="2820.83" width="367.77" height="12.22"/>
    <rect class="cls-25" x="7358.46" y="2820.83" width="541.27" height="12.22"/>
  </g>
  <g>
    <g>
      <g>
        <g>
          <rect class="cls-28" x="1518.7" y="2901.76" width="56.05" height="68.99"/>
          <rect class="cls-28" x="1532.71" y="2832.77" width="28.03" height="68.99"/>
        </g>
        <g>
          <rect class="cls-28" x="1651.55" y="2901.76" width="56.05" height="68.99"/>
          <rect class="cls-28" x="1665.57" y="2832.77" width="28.03" height="68.99"/>
        </g>
        <g>
          <rect class="cls-28" x="1784.41" y="2901.76" width="56.05" height="68.99"/>
          <rect class="cls-28" x="1798.42" y="2832.77" width="28.03" height="68.99"/>
        </g>
        <g>
          <rect class="cls-28" x="1917.26" y="2901.76" width="56.05" height="68.99"/>
          <rect class="cls-28" x="1931.28" y="2832.77" width="28.03" height="68.99"/>
        </g>
        <g>
          <rect class="cls-28" x="2050.12" y="2901.76" width="56.05" height="68.99"/>
          <rect class="cls-28" x="2064.13" y="2832.77" width="28.03" height="68.99"/>
        </g>
        <g>
          <rect class="cls-28" x="2182.98" y="2901.76" width="56.05" height="68.99"/>
          <rect class="cls-28" x="2196.99" y="2832.77" width="28.03" height="68.99"/>
        </g>
      </g>
      <g>
        <g>
          <rect class="cls-28" x="2182.98" y="3756.25" width="56.05" height="68.99"/>
          <rect class="cls-28" x="2196.99" y="3825.24" width="28.03" height="68.99"/>
        </g>
        <g>
          <rect class="cls-28" x="2050.12" y="3756.25" width="56.05" height="68.99"/>
          <rect class="cls-28" x="2064.13" y="3825.24" width="28.03" height="68.99"/>
        </g>
        <g>
          <rect class="cls-28" x="1917.26" y="3756.25" width="56.05" height="68.99"/>
          <rect class="cls-28" x="1931.28" y="3825.24" width="28.03" height="68.99"/>
        </g>
        <g>
          <rect class="cls-28" x="1784.41" y="3756.25" width="56.05" height="68.99"/>
          <rect class="cls-28" x="1798.42" y="3825.24" width="28.03" height="68.99"/>
        </g>
        <g>
          <rect class="cls-28" x="1651.55" y="3756.25" width="56.05" height="68.99"/>
          <rect class="cls-28" x="1665.57" y="3825.24" width="28.03" height="68.99"/>
        </g>
        <g>
          <rect class="cls-28" x="1518.7" y="3756.25" width="56.05" height="68.99"/>
          <rect class="cls-28" x="1532.71" y="3825.24" width="28.03" height="68.99"/>
        </g>
      </g>
      <g>
        <g>
          <rect class="cls-28" x="2276.17" y="2992.26" width="68.99" height="56.05"/>
          <rect class="cls-28" x="2345.16" y="3006.28" width="68.99" height="28.03"/>
        </g>
        <g>
          <rect class="cls-28" x="2276.17" y="3125.12" width="68.99" height="56.05"/>
          <rect class="cls-28" x="2345.16" y="3139.13" width="68.99" height="28.03"/>
        </g>
        <g>
          <rect class="cls-28" x="2276.17" y="3257.97" width="68.99" height="56.05"/>
          <rect class="cls-28" x="2345.16" y="3271.99" width="68.99" height="28.03"/>
        </g>
        <g>
          <rect class="cls-28" x="2276.17" y="3390.83" width="68.99" height="56.05"/>
          <rect class="cls-28" x="2345.16" y="3404.84" width="68.99" height="28.03"/>
        </g>
        <g>
          <rect class="cls-28" x="2276.17" y="3523.69" width="68.99" height="56.05"/>
          <rect class="cls-28" x="2345.16" y="3537.7" width="68.99" height="28.03"/>
        </g>
        <g>
          <rect class="cls-28" x="2276.17" y="3656.54" width="68.99" height="56.05"/>
          <rect class="cls-28" x="2345.16" y="3670.55" width="68.99" height="28.03"/>
        </g>
      </g>
      <g>
        <g>
          <rect class="cls-28" x="1407.35" y="3656.54" width="68.99" height="56.05"/>
          <rect class="cls-28" x="1338.37" y="3670.56" width="68.99" height="28.03"/>
        </g>
        <g>
          <rect class="cls-28" x="1407.35" y="3523.69" width="68.99" height="56.05"/>
          <rect class="cls-28" x="1338.37" y="3537.7" width="68.99" height="28.03"/>
        </g>
        <g>
          <rect class="cls-28" x="1407.35" y="3390.83" width="68.99" height="56.05"/>
          <rect class="cls-28" x="1338.37" y="3404.84" width="68.99" height="28.03"/>
        </g>
        <g>
          <rect class="cls-28" x="1407.35" y="3257.97" width="68.99" height="56.05"/>
          <rect class="cls-28" x="1338.37" y="3271.99" width="68.99" height="28.03"/>
        </g>
        <g>
          <rect class="cls-28" x="1407.35" y="3125.12" width="68.99" height="56.05"/>
          <rect class="cls-28" x="1338.37" y="3139.13" width="68.99" height="28.03"/>
        </g>
        <g>
          <rect class="cls-28" x="1407.35" y="2992.26" width="68.99" height="56.05"/>
          <rect class="cls-28" x="1338.37" y="3006.28" width="68.99" height="28.03"/>
        </g>
      </g>
    </g>
    <path class="cls-28" d="M2286.05,3096.5c-9.71,0-17.58-7.87-17.58-17.58s6.57-17.58,16.28-17.58c.41,0,.82.03,1.23.06v-85.18c0-9.1-7.38-16.48-16.48-16.48h-778.51c-9.1,0-16.48,7.38-16.48,16.48v85.19c.46-.04.91-.07,1.38-.07,9.71,0,17.58,7.87,17.58,17.58s-7.87,17.58-17.58,17.58c-.46,0-.92-.03-1.38-.07v653.08c0,9.1,7.38,16.48,16.48,16.48h778.51c9.1,0,16.48-7.38,16.48-16.48"/>
    <rect class="cls-25" x="1551.86" y="3036.59" width="656.77" height="652.56" rx="12.65" ry="12.65"/>
    <rect class="cls-31" x="1625.27" y="3109.53" width="509.95" height="506.68" rx="12.65" ry="12.65"/>
    <polyline class="cls-25" points="1542.97 3752.97 1485.66 3752.97 1485.66 3695.66"/>
  </g>
  <g class="cls-38">
    <g>
      <g>
        <g>
          <rect class="cls-28" x="3604.95" y="2468.02" width="31.71" height="39.03"/>
          <rect class="cls-28" x="3612.87" y="2428.98" width="15.86" height="39.03"/>
        </g>
        <g>
          <rect class="cls-28" x="3680.12" y="2468.02" width="31.71" height="39.03"/>
          <rect class="cls-28" x="3688.04" y="2428.98" width="15.86" height="39.03"/>
        </g>
        <g>
          <rect class="cls-28" x="3755.28" y="2468.02" width="31.71" height="39.03"/>
          <rect class="cls-28" x="3763.21" y="2428.98" width="15.86" height="39.03"/>
        </g>
        <g>
          <rect class="cls-28" x="3830.45" y="2468.02" width="31.71" height="39.03"/>
          <rect class="cls-28" x="3838.38" y="2428.98" width="15.86" height="39.03"/>
        </g>
        <g>
          <rect class="cls-28" x="3905.62" y="2468.02" width="31.71" height="39.03"/>
          <rect class="cls-28" x="3913.55" y="2428.98" width="15.86" height="39.03"/>
        </g>
        <g>
          <rect class="cls-28" x="3980.79" y="2468.02" width="31.71" height="39.03"/>
          <rect class="cls-28" x="3988.72" y="2428.98" width="15.86" height="39.03"/>
        </g>
      </g>
      <g>
        <g>
          <rect class="cls-28" x="3980.79" y="2951.48" width="31.71" height="39.03"/>
          <rect class="cls-28" x="3988.72" y="2990.52" width="15.86" height="39.03"/>
        </g>
        <g>
          <rect class="cls-28" x="3905.62" y="2951.48" width="31.71" height="39.03"/>
          <rect class="cls-28" x="3913.55" y="2990.52" width="15.86" height="39.03"/>
        </g>
        <g>
          <rect class="cls-28" x="3830.45" y="2951.48" width="31.71" height="39.03"/>
          <rect class="cls-28" x="3838.38" y="2990.52" width="15.86" height="39.03"/>
        </g>
        <g>
          <rect class="cls-28" x="3755.28" y="2951.48" width="31.71" height="39.03"/>
          <rect class="cls-28" x="3763.21" y="2990.52" width="15.86" height="39.03"/>
        </g>
        <g>
          <rect class="cls-28" x="3680.12" y="2951.48" width="31.71" height="39.03"/>
          <rect class="cls-28" x="3688.04" y="2990.52" width="15.86" height="39.03"/>
        </g>
        <g>
          <rect class="cls-28" x="3604.95" y="2951.48" width="31.71" height="39.03"/>
          <rect class="cls-28" x="3612.87" y="2990.52" width="15.86" height="39.03"/>
        </g>
      </g>
      <g>
        <g>
          <rect class="cls-28" x="4033.52" y="2519.22" width="39.03" height="31.71"/>
          <rect class="cls-28" x="4072.55" y="2527.15" width="39.03" height="15.86"/>
        </g>
        <g>
          <rect class="cls-28" x="4033.52" y="2594.39" width="39.03" height="31.71"/>
          <rect class="cls-28" x="4072.55" y="2602.32" width="39.03" height="15.86"/>
        </g>
        <g>
          <rect class="cls-28" x="4033.52" y="2669.56" width="39.03" height="31.71"/>
          <rect class="cls-28" x="4072.55" y="2677.49" width="39.03" height="15.86"/>
        </g>
        <g>
          <rect class="cls-28" x="4033.52" y="2744.73" width="39.03" height="31.71"/>
          <rect class="cls-28" x="4072.55" y="2752.66" width="39.03" height="15.86"/>
        </g>
        <g>
          <rect class="cls-28" x="4033.52" y="2819.9" width="39.03" height="31.71"/>
          <rect class="cls-28" x="4072.55" y="2827.83" width="39.03" height="15.86"/>
        </g>
        <g>
          <rect class="cls-28" x="4033.52" y="2895.07" width="39.03" height="31.71"/>
          <rect class="cls-28" x="4072.55" y="2903" width="39.03" height="15.86"/>
        </g>
      </g>
      <g>
        <g>
          <rect class="cls-28" x="3541.95" y="2895.07" width="39.03" height="31.71"/>
          <rect class="cls-28" x="3502.92" y="2903" width="39.03" height="15.86"/>
        </g>
        <g>
          <rect class="cls-28" x="3541.95" y="2819.9" width="39.03" height="31.71"/>
          <rect class="cls-28" x="3502.92" y="2827.83" width="39.03" height="15.86"/>
        </g>
        <g>
          <rect class="cls-28" x="3541.95" y="2744.73" width="39.03" height="31.71"/>
          <rect class="cls-28" x="3502.92" y="2752.66" width="39.03" height="15.86"/>
        </g>
        <g>
          <rect class="cls-28" x="3541.95" y="2669.56" width="39.03" height="31.71"/>
          <rect class="cls-28" x="3502.92" y="2677.49" width="39.03" height="15.86"/>
        </g>
        <g>
          <rect class="cls-28" x="3541.95" y="2594.39" width="39.03" height="31.71"/>
          <rect class="cls-28" x="3502.92" y="2602.32" width="39.03" height="15.86"/>
        </g>
        <g>
          <rect class="cls-28" x="3541.95" y="2519.22" width="39.03" height="31.71"/>
          <rect class="cls-28" x="3502.92" y="2527.15" width="39.03" height="15.86"/>
        </g>
      </g>
    </g>
    <path class="cls-28" d="M4039.11,2578.2c-5.49,0-9.95-4.45-9.95-9.95s3.72-9.95,9.21-9.95c.23,0,.46.02.69.04v-48.19c0-5.15-4.17-9.32-9.32-9.32h-440.47c-5.15,0-9.32,4.17-9.32,9.32v48.2c.26-.02.52-.04.78-.04,5.49,0,9.95,4.45,9.95,9.95s-4.45,9.95-9.95,9.95c-.26,0-.52-.02-.78-.04v369.51c0,5.15,4.17,9.32,9.32,9.32h440.47c5.15,0,9.32-4.17,9.32-9.32"/>
    <rect class="cls-25" x="3623.71" y="2544.3" width="371.6" height="369.21" rx="12.65" ry="12.65"/>
    <rect class="cls-31" x="3665.24" y="2585.57" width="288.53" height="286.67" rx="12.65" ry="12.65"/>
    <polyline class="cls-25" points="3618.68 2949.62 3586.25 2949.62 3586.25 2917.2"/>
  </g>
  <g>
    <path class="cls-31" d="M671.23,4059.6h-207.86c.3,11.6-.79,28.22-7.49,46.64-2.93,8.05-6.39,14.97-9.79,20.73h242.4c-3.42-6.49-6.88-14.18-9.79-23.03-5.65-17.18-7.27-32.64-7.49-44.34Z"/>
    <rect class="cls-28" y="3319" width="1150.99" height="742.76" rx="26.62" ry="26.62"/>
    <rect class="cls-25" x="49.76" y="3364.76" width="1050.98" height="606.14"/>
    <circle class="cls-25" cx="71.55" cy="4015.89" r="16.99"/>
    <circle class="cls-25" cx="123.37" cy="4015.89" r="16.99"/>
    <path class="cls-28" d="M343.71,4126.97h452.94c19.76,0,35.8,16.04,35.8,35.8v25.23H307.91v-25.23c0-19.76,16.04-35.8,35.8-35.8Z"/>
  </g>
  <g class="cls-34">
    <path class="cls-31" d="M7498.88,1192.05h-148.52c.22,8.29-.56,20.16-5.35,33.33-2.09,5.75-4.56,10.69-6.99,14.81h173.21c-2.45-4.64-4.91-10.13-6.99-16.46-4.04-12.28-5.19-23.32-5.35-31.68Z"/>
    <rect class="cls-28" x="7019.26" y="662.85" width="822.43" height="530.74" rx="26.62" ry="26.62"/>
    <rect class="cls-25" x="7054.81" y="695.55" width="750.98" height="433.12"/>
    <circle class="cls-25" cx="7070.38" cy="1160.81" r="12.14"/>
    <circle class="cls-25" cx="7107.41" cy="1160.81" r="12.14"/>
    <path class="cls-28" d="M7275.07,1240.18h303.21c19.76,0,35.8,16.04,35.8,35.8v7.81h-374.81v-7.81c0-19.76,16.04-35.8,35.8-35.8Z"/>
  </g>
  <g>
    <rect class="cls-28" x="1407.65" y="4300.52" width="577.96" height="901.33" rx="91.26" ry="91.26"/>
    <polygon class="cls-25" points="1773.75 4443.86 1575.78 4753.59 1676.36 4753.59 1612.5 5006.65 1806.48 4694.52 1704.3 4694.52 1773.75 4443.86"/>
    <rect class="cls-31" x="1440.87" y="5096.05" width="522.08" height="82.22" rx="41.11" ry="41.11"/>
    <rect class="cls-25" x="1487.17" y="5133.57" width="96.59" height="13.57" rx="6.79" ry="6.79"/>
    <rect class="cls-25" x="1631.66" y="5133.57" width="96.59" height="13.57" rx="6.79" ry="6.79"/>
    <circle class="cls-25" cx="1840.41" cy="5139.56" r="14.77"/>
    <circle class="cls-25" cx="1899.48" cy="5139.56" r="14.77"/>
    <path class="cls-28" d="M1658.8,4233.11h71.05c20.71,0,37.52,16.81,37.52,37.52v35.13h-146.09v-35.13c0-20.71,16.81-37.52,37.52-37.52Z"/>
    <path class="cls-12" d="M1695.12,4233.94v-56.23c0-43.47,35.24-78.71,78.71-78.71h301.6c43.47,0,78.71,35.24,78.71,78.71v375.91"/>
    <path class="cls-28" d="M2112.72,4554.02h82.02c17.46,0,31.63,14.17,31.63,31.63v124.03h-145.29v-124.03c0-17.46,14.17-31.63,31.63-31.63Z"/>
    <rect class="cls-28" x="2101.84" y="4709.69" width="102.18" height="75.84"/>
    <rect class="cls-25" x="2136.7" y="4729.64" width="11.96" height="24.75"/>
    <rect class="cls-25" x="2163.6" y="4729.64" width="11.96" height="24.75"/>
  </g>
  <g class="cls-35">
    <rect class="cls-28" x="6025.6" y="2481.06" width="364.72" height="568.79" rx="91.26" ry="91.26"/>
    <polygon class="cls-25" points="6256.63 2571.51 6131.7 2766.97 6195.18 2766.97 6154.87 2926.66 6277.29 2729.69 6212.81 2729.69 6256.63 2571.51"/>
    <rect class="cls-31" x="6046.57" y="2983.08" width="329.46" height="51.89" rx="25.94" ry="25.94"/>
    <rect class="cls-25" x="6075.78" y="3006.76" width="60.96" height="8.56" rx="4.28" ry="4.28"/>
    <rect class="cls-25" x="6166.96" y="3006.76" width="60.96" height="8.56" rx="4.28" ry="4.28"/>
    <circle class="cls-25" cx="6298.7" cy="3010.54" r="9.32"/>
    <circle class="cls-25" cx="6335.98" cy="3010.54" r="9.32"/>
    <path class="cls-28" d="M6197.93,2438.52h17.15c20.71,0,37.52,16.81,37.52,37.52v8.32h-92.19v-8.32c0-20.71,16.81-37.52,37.52-37.52Z"/>
    <path class="cls-14" d="M6207.01,2439.04v-35.48c0-27.43,22.24-49.67,49.67-49.67h190.32c27.43,0,49.67,22.24,49.67,49.67v237.22"/>
    <path class="cls-28" d="M6482.21,2641.03h28.42c17.46,0,31.63,14.17,31.63,31.63v66.6h-91.68v-66.6c0-17.46,14.17-31.63,31.63-31.63Z"/>
    <rect class="cls-28" x="6463.68" y="2739.26" width="64.48" height="47.86"/>
    <rect class="cls-25" x="6485.68" y="2751.86" width="7.55" height="15.62"/>
    <rect class="cls-25" x="6502.65" y="2751.86" width="7.55" height="15.62"/>
  </g>
  <g>
    <rect class="cls-31" x="192.19" y="5371" width="772.73" height="621.13"/>
    <path class="cls-28" d="M578.56,5383.11c-164.5,0-297.85,133.35-297.85,297.85s133.35,297.85,297.85,297.85,297.85-133.35,297.85-297.85-133.35-297.85-297.85-297.85ZM578.56,5758.91c-43.05,0-77.95-34.9-77.95-77.95s34.9-77.95,77.95-77.95,77.95,34.9,77.95,77.95-34.9,77.95-77.95,77.95Z"/>
    <path class="cls-28" d="M159.78,5991.12h837.96c14.76,0,26.73,11.98,26.73,26.73v133.14H133.04v-133.14c0-14.76,11.98-26.73,26.73-26.73Z"/>
  </g>
  <g>
    <rect class="cls-28" x="78.92" y="4333.5" width="999.68" height="885" rx="37.92" ry="37.92"/>
    <rect class="cls-25" x="146.64" y="4523.38" width="29.92" height="526.01"/>
    <rect class="cls-25" x="146.64" y="5094.27" width="29.92" height="32.41"/>
    <rect class="cls-25" x="146.64" y="4448.59" width="29.92" height="32.41"/>
    <rect class="cls-25" x="971.81" y="4523.38" width="29.92" height="526.01"/>
    <rect class="cls-25" x="971.81" y="5094.27" width="29.92" height="32.41"/>
    <rect class="cls-25" x="971.81" y="4448.59" width="29.92" height="32.41"/>
    <path class="cls-31" d="M578.76,4456.9c-176.23,0-319.1,142.87-319.1,319.1s142.87,319.1,319.1,319.1,319.1-142.86,319.1-319.1-142.87-319.1-319.1-319.1ZM578.76,4859.51c-46.12,0-83.51-37.39-83.51-83.51s37.39-83.51,83.51-83.51,83.51,37.39,83.51,83.51-37.39,83.51-83.51,83.51Z"/>
  </g>
  <g class="cls-44">
    <g>
      <rect class="cls-31" x="5990.28" y="1709.56" width="534.94" height="429.99" transform="translate(4333.19 8182.31) rotate(-90)"/>
      <path class="cls-28" d="M6051.14,1924.56c0,113.88,92.32,206.19,206.19,206.19s206.19-92.32,206.19-206.19-92.32-206.19-206.19-206.19-206.19,92.32-206.19,206.19ZM6311.3,1924.56c0,29.8-24.16,53.96-53.96,53.96s-53.96-24.16-53.96-53.96,24.16-53.96,53.96-53.96,53.96,24.16,53.96,53.96Z"/>
      <path class="cls-28" d="M6245.57,1869.08h563.64c14.76,0,26.73,11.98,26.73,26.73v83.94h-617.11v-83.94c0-14.76,11.98-26.73,26.73-26.73Z" transform="translate(4602.97 8451.81) rotate(-90)"/>
    </g>
    <g>
      <rect class="cls-28" x="5890.35" y="1653.74" width="615.68" height="545.05" rx="37.92" ry="37.92" transform="translate(4271.92 8124.45) rotate(-90)"/>
      <rect class="cls-25" x="6195.37" y="2021.2" width="18.42" height="323.96" transform="translate(4021.4 8387.77) rotate(-90)"/>
      <rect class="cls-25" x="6394.97" y="2173.2" width="18.42" height="19.96" transform="translate(4221 8587.36) rotate(-90)"/>
      <rect class="cls-25" x="5997.31" y="2173.2" width="18.42" height="19.96" transform="translate(3823.34 8189.71) rotate(-90)"/>
      <rect class="cls-25" x="6195.37" y="1513" width="18.42" height="323.96" transform="translate(4529.6 7879.56) rotate(-90)"/>
      <rect class="cls-25" x="6394.97" y="1665" width="18.42" height="19.96" transform="translate(4729.2 8079.16) rotate(-90)"/>
      <rect class="cls-25" x="5997.31" y="1665" width="18.42" height="19.96" transform="translate(4331.54 7681.5) rotate(-90)"/>
      <path class="cls-31" d="M6001.66,1926.27c0,108.54,87.99,196.53,196.53,196.53s196.53-87.99,196.53-196.53-87.99-196.53-196.53-196.53-196.53,87.99-196.53,196.53ZM6249.62,1926.27c0,28.41-23.03,51.43-51.43,51.43s-51.43-23.03-51.43-51.43,23.03-51.43,51.43-51.43,51.43,23.03,51.43,51.43Z"/>
    </g>
  </g>
  <g>
    <rect class="cls-28" x="1354.06" y="5420.89" width="873.53" height="873.53" rx="24.51" ry="24.51"/>
    <circle class="cls-25" cx="1795.72" cy="5851.18" r="415.67"/>
    <path id="ventilador-7" data-name="ventilador" class="cls-28" d="M2182.55,5816.2c-1.42-16.96-4.15-30.87-6.36-40.34-4.18-8.97-9.26-13.38-14.31-15.31-24.12-9.23-50.59,35.88-128.69,63.01-25.28,8.78-62.91,19.27-117.8,10.08-1.43-6.13-2.86-12.25-4.29-18.38,14.82-5.57,35.71-14.32,59.48-27.46,56.23-31.09,88.17-64.44,100.08-77.64,32.66-36.22,38.6-52.71,39.01-65.32.12-3.66.37-11.97-2.13-21.51-6.65-16.18-19.76-42.03-44.86-66.31-34.79-33.66-73.13-45.48-91.35-49.82-7.15-.56-11.88.99-14.47,2.45-22.52,12.66-4.73,61.84-33.76,139.26-9.4,25.06-25.37,60.7-67.52,97.06-5.63-2.81-11.25-5.63-16.88-8.44,5.18-14.96,11.8-36.62,16.88-63.3,12.01-63.11,6.77-109,4.22-126.6-6.99-48.27-15.89-63.37-25.32-71.74-2.65-2.35-8.6-7.59-17.11-11.71-8.99-.61-18.06-.95-27.2-.95-42.92,0-84.22,6.88-122.9,19.55-3.08,3.27-5,6.51-6.14,9.62-9.98,27.33,39.13,48.2,68.83,127.27,9.61,25.6,21.1,64.11,11.25,124.35-6.66,2.54-13.31,5.08-19.97,7.62-6.1-14.93-15.66-35.84-30-59.09-33.94-55.02-70.28-83.69-84.67-94.25-39.46-28.97-57.41-32.59-71.11-30.95-2.95.35-8.69,1.05-15.68,3.11-42.34,39.86-75.87,88.95-97.36,144.08.62,6.79,2.55,11.74,5.1,15.36,16.78,23.77,61.9-4.71,143.81,15.92,26.52,6.68,64.72,19.17,108.62,61.58-1.7,6.92-3.41,13.84-5.11,20.75-15.74-3.49-38.37-7.54-65.66-9-64.55-3.44-108.82,10.1-125.69,15.91-46.28,15.93-59.49,28.62-65.94,40.81-4.03,7.6-9.17,18.65-10.22,41.51-2.14,46.99,14.02,87.87,29.42,116,11.18,13.63,20.67,18.34,28.36,19.06,28.97,2.71,36.67-50.1,105.6-98.91,22.31-15.8,56.65-36.7,117.41-42.49,4.15,5.79,8.3,11.58,12.45,17.38-12.89,9.69-30.68,24.25-49.53,44.04-44.59,46.81-63.08,89.24-69.64,105.84-17.99,45.52-16.93,63.8-11.87,76.64,2.23,5.64,8.74,22.14,24.9,34.75,8.72,6.81,16.5,10.74,21.01,12.69,47.55,20.5,120.75,52.05,141.56,28.26,17.05-19.49-18.91-55.92-17.68-143.61.38-27.34,3.73-67.39,34.87-119.89,7.12.06,14.25.12,21.37.18.23,16.13,1.51,39.08,6.39,65.97,11.54,63.6,34.92,103.55,44.46,118.64,26.18,41.36,41.57,51.28,54.92,54.75,15.22,3.96,27.69,2.78,42.75.37,45.01-7.21,76.02-31.56,86.72-40.69,15.63-13.32,66.02-56.27,55.27-86.24-9.46-26.39-56.87-15.25-129.69-60.93-22.68-14.22-54.4-37-81.6-85.57,3.88-4.95,7.76-9.9,11.65-14.85,13.62,8.07,33.52,18.89,58.64,29.2,59.44,24.39,105.44,28.43,123.2,29.45,38.72,2.23,58.15,1.36,75.35-10.46,48.69-33.47,41.07-124.81,38.9-150.76Z"/>
    <circle id="rodona-7" data-name="rodona" class="cls-31" cx="1792.94" cy="5849.21" r="118.16"/>
    <circle class="cls-9" cx="1790.83" cy="5857.65" r="333.81"/>
    <circle class="cls-9" cx="1790.83" cy="5857.65" r="229.32"/>
    <polygon class="cls-28" points="2102.3 5422.14 2126.07 5402.13 2217.37 5402.13 2246.76 5431.52 2246.76 5522.19 2227.37 5548.46 2102.3 5422.14"/>
    <polygon class="cls-28" points="1355.02 5546.58 1335.01 5522.82 1335.01 5431.52 1364.4 5402.13 1455.07 5402.13 1481.34 5421.51 1355.02 5546.58"/>
    <polygon class="cls-28" points="1478.21 6292.61 1454.45 6312.62 1363.15 6312.62 1333.76 6283.23 1333.76 6192.56 1353.14 6166.29 1478.21 6292.61"/>
    <polygon class="cls-28" points="2224.24 6169.42 2244.26 6193.18 2244.26 6284.48 2214.86 6313.87 2124.19 6313.87 2097.93 6294.49 2224.24 6169.42"/>
    <circle id="R.2-33" data-name="R.2" class="cls-25" cx="2177.02" cy="5463.51" r="27.19"/>
    <circle id="R.1-7" data-name="R.1" class="cls-25" cx="1407.34" cy="5463.51" r="27.19"/>
    <circle id="R.3-7" data-name="R.3" class="cls-25" cx="1407.34" cy="6239.3" r="27.19"/>
    <circle id="R.4-7" data-name="R.4" class="cls-25" cx="2177.02" cy="6239.3" r="27.19"/>
  </g>
  <g class="cls-42">
    <rect class="cls-28" x="4666.27" y="2436.44" width="595.42" height="595.42" rx="24.51" ry="24.51"/>
    <circle class="cls-25" cx="4967.32" cy="2729.74" r="283.33"/>
    <path id="ventilador-8" data-name="ventilador" class="cls-28" d="M5230.99,2705.9c-.96-11.56-2.83-21.04-4.34-27.5-2.85-6.11-6.31-9.12-9.75-10.44-16.44-6.29-34.48,24.45-87.72,42.95-17.23,5.99-42.88,13.13-80.3,6.87-.98-4.18-1.95-8.35-2.93-12.53,10.1-3.8,24.34-9.76,40.54-18.72,38.33-21.19,60.1-43.92,68.22-52.92,22.27-24.69,26.31-35.93,26.59-44.52.08-2.49.25-8.16-1.45-14.66-4.53-11.03-13.47-28.65-30.57-45.2-23.71-22.94-49.85-31-62.26-33.96-4.88-.38-8.1.68-9.86,1.67-15.35,8.63-3.22,42.15-23.01,94.92-6.41,17.08-17.3,41.38-46.02,66.16-3.84-1.92-7.67-3.84-11.51-5.75,3.53-10.2,8.04-24.96,11.51-43.15,8.19-43.02,4.61-74.3,2.88-86.29-4.76-32.9-10.83-43.2-17.26-48.9-1.81-1.6-5.87-5.17-11.66-7.98-6.13-.42-12.31-.65-18.54-.65-29.25,0-57.41,4.69-83.77,13.32-2.1,2.23-3.41,4.44-4.18,6.56-6.8,18.63,26.67,32.85,46.92,86.75,6.55,17.45,14.38,43.7,7.67,84.76-4.54,1.73-9.07,3.46-13.61,5.2-4.16-10.18-10.67-24.43-20.45-40.28-23.13-37.5-47.9-57.04-57.71-64.24-26.9-19.74-39.13-22.21-48.47-21.1-2.01.24-5.92.71-10.69,2.12-28.86,27.17-51.71,60.63-66.36,98.21.42,4.63,1.74,8,3.48,10.47,11.44,16.2,42.19-3.21,98.03,10.85,18.07,4.55,44.11,13.07,74.04,41.97-1.16,4.72-2.32,9.43-3.48,14.15-10.73-2.38-26.16-5.14-44.76-6.13-44-2.35-74.17,6.88-85.67,10.84-31.55,10.86-40.55,19.51-44.95,27.82-2.74,5.18-6.25,12.71-6.96,28.29-1.46,32.03,9.56,59.89,20.06,79.07,7.62,9.29,14.09,12.5,19.33,12.99,19.74,1.84,24.99-34.15,71.98-67.42,15.21-10.77,38.61-25.02,80.03-28.96,2.83,3.95,5.66,7.9,8.48,11.84-8.79,6.61-20.91,16.53-33.76,30.02-30.39,31.9-43,60.83-47.47,72.14-12.26,31.03-11.54,43.49-8.09,52.24,1.52,3.85,5.96,15.09,16.97,23.69,5.94,4.64,11.25,7.32,14.32,8.65,32.41,13.97,82.31,35.48,96.49,19.26,11.62-13.29-12.89-38.11-12.05-97.89.26-18.64,2.54-45.94,23.77-81.72,4.86.04,9.71.08,14.57.12.16,10.99,1.03,26.64,4.35,44.96,7.86,43.35,23.8,70.58,30.31,80.86,17.84,28.19,28.33,34.95,37.44,37.32,10.37,2.7,18.87,1.89,29.14.25,30.68-4.91,51.82-21.51,59.11-27.73,10.65-9.08,45-38.36,37.68-58.79-6.45-17.99-38.76-10.4-88.4-41.53-15.46-9.69-37.08-25.22-55.62-58.32,2.65-3.37,5.29-6.75,7.94-10.12,9.28,5.5,22.85,12.87,39.97,19.9,40.51,16.63,71.87,19.38,83.97,20.08,26.39,1.52,39.64.93,51.36-7.13,33.19-22.81,27.99-85.08,26.52-102.76Z"/>
    <circle id="rodona-8" data-name="rodona" class="cls-31" cx="4965.42" cy="2728.4" r="80.54"/>
    <circle class="cls-19" cx="4963.99" cy="2734.15" r="227.54"/>
    <circle class="cls-19" cx="4963.99" cy="2734.15" r="156.31"/>
    <polygon class="cls-28" points="5176.29 2437.29 5192.49 2423.65 5254.72 2423.65 5274.76 2443.69 5274.76 2505.49 5261.54 2523.4 5176.29 2437.29"/>
    <polygon class="cls-28" points="4666.92 2522.12 4653.28 2505.92 4653.28 2443.69 4673.32 2423.65 4735.12 2423.65 4753.03 2436.87 4666.92 2522.12"/>
    <polygon class="cls-28" points="4750.9 3030.63 4734.7 3044.27 4672.47 3044.27 4652.43 3024.24 4652.43 2962.43 4665.65 2944.53 4750.9 3030.63"/>
    <polygon class="cls-28" points="5259.41 2946.66 5273.05 2962.86 5273.05 3025.09 5253.02 3045.13 5191.21 3045.13 5173.31 3031.91 5259.41 2946.66"/>
    <circle id="R.2-34" data-name="R.2" class="cls-25" cx="5227.22" cy="2465.49" r="18.53"/>
    <circle id="R.1-8" data-name="R.1" class="cls-25" cx="4702.59" cy="2465.49" r="18.53"/>
    <circle id="R.3-8" data-name="R.3" class="cls-25" cx="4702.59" cy="2994.29" r="18.53"/>
    <circle id="R.4-8" data-name="R.4" class="cls-25" cx="5227.22" cy="2994.29" r="18.53"/>
  </g>
  <path id="light_board" class="cls-17" d="M1316.76,2439.5h77c12.43,0,22.5,10.07,22.5,22.5v164c0,12.43,10.07,22.5,22.5,22.5h73c12.43,0,22.5-10.07,22.5-22.5v-319c0-12.43,10.07-22.5,22.5-22.5h613c12.43,0,22.5-10.07,22.5-22.5h0c0-12.43-10.07-22.5-22.5-22.5h-613c-12.43,0-22.5-10.07-22.5-22.5v-1c0-12.43,10.07-22.5,22.5-22.5h612c12.43,0,22.5-10.07,22.5-22.5v-537c0-12.43-10.07-22.5-22.5-22.5h-431c-12.43,0-22.5-10.07-22.5-22.5v-4c0-12.43,10.07-22.5,22.5-22.5h433c12.43,0,22.5-10.07,22.5-22.5v-21c0-12.43-10.07-22.5-22.5-22.5l-854.5,3"/>
  <circle class="cls-30" cx="5593.76" cy="4048" r="225"/>
  <g>
    <path class="cls-30" d="M4603.86,3846.9c-43.93-43.93-101.52-65.9-159.1-65.9l.5,225"/>
    <path class="cls-30" d="M4668.13,4048.07c0-62.13-25.18-118.38-65.9-159.1l-158.75,159.45"/>
    <path class="cls-30" d="M4602.76,4219.63c43.93-43.93,65.9-101.52,65.9-159.1l-225,.5"/>
    <path class="cls-30" d="M4434.58,4293.9c62.13,0,118.38-25.18,159.1-65.9l-159.45-158.75"/>
    <path class="cls-30" d="M4262.03,4228c43.93,43.93,101.52,65.9,159.1,65.9l-.5-225"/>
    <path class="cls-30" d="M4187.76,4059.83c0,62.13,25.18,118.38,65.9,159.1l158.75-159.45"/>
    <path class="cls-30" d="M4253.13,3888.27c-43.93,43.93-65.9,101.52-65.9,159.1l225-.5"/>
    <path class="cls-30" d="M4421.3,3814c-62.13,0-118.38,25.18-159.1,65.9l159.45,158.75"/>
  </g>
  <g>
    <path class="cls-29" d="M5190.86,3859.9c-43.93-43.93-101.52-65.9-159.1-65.9l.5,225"/>
    <path class="cls-30" d="M5259.13,4048.07c0-62.13-25.18-118.38-65.9-159.1l-158.75,159.45"/>
    <path class="cls-30" d="M5193.76,4219.63c43.93-43.93,65.9-101.52,65.9-159.1l-225,.5"/>
    <path class="cls-30" d="M5025.58,4293.9c62.13,0,118.38-25.18,159.1-65.9l-159.45-158.75"/>
    <path class="cls-30" d="M4853.03,4228c43.93,43.93,101.52,65.9,159.1,65.9l-.5-225"/>
    <path class="cls-30" d="M4778.76,4059.83c0,62.13,25.18,118.38,65.9,159.1l158.75-159.45"/>
    <path class="cls-30" d="M4844.13,3888.27c-43.93,43.93-65.9,101.52-65.9,159.1l225-.5"/>
    <path class="cls-30" d="M5012.3,3814c-62.13,0-118.38,25.18-159.1,65.9l159.45,158.75"/>
  </g>
  <path class="cls-29" d="M5614.46,4027.29l209.72-80.2c-15.25-38.59-37.5-64.37-51.33-78.2-13.83-13.83-39.6-36.08-78.2-51.33-26.73,69.91-53.46,139.81-80.2,209.72Z"/>
  <path class="cls-30" d="M6406.7,4040.14c-1.67-124.25-103.76-223.62-228.01-221.95-124.25,1.67-223.62,103.76-221.95,228.01,1.22,90.5,55.71,167.78,133.23,202.46l101-199.2c34.13,63.03,68.25,126.06,102.38,189.09,68.65-39.31,114.49-113.7,113.34-198.42Z"/>
  <path class="cls-29" d="M3485.66,3846.1l-205-91.59c-16.51,38.07-19,72.03-19,91.59,0,19.56,2.49,53.51,19,91.59,68.33-30.53,136.67-61.06,205-91.59Z"/>
  <g>
    <g>
      <path class="cls-25" d="M4579.9,4588.49c-39.61-39.61-91.52-59.41-143.43-59.41l.45,202.84"/>
      <path class="cls-25" d="M4647.76,4738.29c0-56.01-22.7-106.72-59.41-143.43l-143.11,143.75"/>
      <path class="cls-25" d="M4281.66,4900.49c39.61,39.61,91.52,59.41,143.43,59.41l-.45-202.84"/>
      <path class="cls-25" d="M4214.71,4748.88c0,56.01,22.7,106.72,59.41,143.43l143.11-143.75"/>
      <path class="cls-25" d="M4273.64,4594.23c-39.61,39.61-59.41,91.52-59.41,143.43l202.84-.45"/>
      <path class="cls-25" d="M4425.25,4527.27c-56.01,0-106.72,22.7-143.43,59.41l143.75,143.11"/>
    </g>
    <text class="cls-23" transform="translate(4410.23 4959.26)"><tspan x="0" y="0">PO</tspan><tspan class="cls-32" x="463.5" y="0">R</tspan><tspan class="cls-39" x="676.63" y="0">TIONS</tspan></text>
    <text class="cls-24" transform="translate(4707.05 4732.07)"><tspan class="cls-43" x="0" y="0">C</tspan><tspan class="cls-37" x="133.16" y="0">OMPONEN</tspan><tspan class="cls-36" x="1130.66" y="0">T</tspan><tspan class="cls-37" x="1250.42" y="0">S</tspan></text>
  </g>
</svg>