 <svg
          id="monitor"
          class="item"
          data-name="Monitor"
          xmlns="http://www.w3.org/2000/svg"
          viewBox="0 0 1200 958"
        >
          <defs>
            <style>
              .cls-166 {
                letter-spacing: 0.8em;
              }

              .cls-25 {
                letter-spacing: 0.79em;
              }

              .cls-5 {
                fill: #171523;
              }

              .cls-31,
              .cls-6,
              .cls-7 {
                stroke-width: 0px;
              }

              .cls-8 {
                letter-spacing: 0.79em;
              }

              .cls-9 {
                letter-spacing: 0.8em;
              }

              .cls-41 {
                font-family: Montserrat-SemiBold, Montserrat;
                font-size: 139.4px;
                font-weight: 600;
              }

              .light_monitor {
                fill: #fff;
              }

              .cls-5 {
                font-family: Montserrat-Light, Montserrat;
                font-size: 41.84px;
                font-weight: 300;
              }

              .cls-77 {
                fill: #fdae37;
              }

              .cls-101 {
                letter-spacing: 0em;
              }
            </style>
          </defs>
          <g>
            <path
              class="cls-77"
              d="M695.73,785.1h-207.86c.3,11.6-.79,28.22-7.49,46.64-2.93,8.05-6.39,14.97-9.79,20.73h242.4c-3.42-6.49-6.88-14.18-9.79-23.03-5.65-17.18-7.27-32.64-7.49-44.34Z"
            />
            <rect
              class="cls-31"
              x="24.51"
              y="44.5"
              width="1150.99"
              height="742.76"
              rx="26.62"
              ry="26.62"
            />
            <rect
              class="cls-6"
              x="74.26"
              y="90.26"
              width="1050.98"
              height="606.14"
            />
            <circle
              class="cls-6 light_monitor"
              cx="96.05"
              cy="741.39"
              r="16.99"
            />
            <circle
              class="cls-6 light_monitor"
              cx="147.87"
              cy="741.39"
              r="16.99"
            />
            <path
              class="cls-31"
              d="M368.21,852.47h452.94c19.76,0,35.8,16.04,35.8,35.8v25.23H332.41v-25.23c0-19.76,16.04-35.8,35.8-35.8Z"
            />
          </g>
          <g>
            <g id="logo_monitor">
              <path
                class="cls-31 logo"
                d="M343.51,297.37c-18.68-18.68-43.16-28.02-67.64-28.02l.21,95.65"
              />
              <path
                class="cls-31 logo"
                d="M375.51,368.01c0-26.41-10.71-50.33-28.02-67.64l-67.49,67.79"
              />
              <path
                class="cls-31 logo"
                d="M202.86,444.5c18.68,18.68,43.16,28.02,67.64,28.02l-.21-95.65"
              />
              <path
                class="cls-31 logo"
                d="M171.29,373.01c0,26.41,10.71,50.33,28.02,67.64l67.49-67.79"
              />
              <path
                class="cls-31 logo"
                d="M199.08,300.08c-18.68,18.68-28.02,43.16-28.02,67.64l95.65-.21"
              />
              <path
                class="cls-31 logo"
                d="M270.57,268.5c-26.41,0-50.33,10.71-67.64,28.02l67.79,67.49"
              />
            </g>
            <text class="cls-41 logo" transform="translate(263.49 472.22)">
              <tspan x="0" y="0">PO</tspan>
              <tspan class="cls-101" x="218.58" y="0">R</tspan>
              <tspan x="319.09" y="0">TIONS</tspan>
            </text>
            <text class="cls-5 logo" transform="translate(403.47 365.08)">
              <tspan class="cls-8 logo" x="0" y="0">C</tspan>
              <tspan class="cls-166 logo" x="62.8" y="0">OMPONEN</tspan>
              <tspan class="cls-25 logo" x="533.2" y="0">T</tspan>
              <tspan class="cls-9 logo" x="589.68" y="0">S</tspan>
            </text>
          </g>
        </svg>