<svg
          id="motherboard"
          class="item"
          data-name="motherboard"
          xmlns="http://www.w3.org/2000/svg"
          viewBox="0 0 1265 1393"
        >

          <g>
            <rect
              class="cls-5"
              x="73.94"
              y="45.3"
              width="1165.95"
              height="1303.3"
              rx="62.6"
              ry="62.6"
            />
            <g>
              <rect
                class="cls-7"
                x="542.1"
                y="343.28"
                width="329.74"
                height="329.74"
                rx="21.28"
                ry="21.28"
              />
              <circle class="cls-5" cx="708.81" cy="505.71" r="156.9" />
              <g id="ventilador_board">
                <path
                  class="cls-7"
                  d="M854.83,492.5c-.53-6.4-1.57-11.65-2.4-15.23-1.58-3.38-3.5-5.05-5.4-5.78-9.11-3.49-19.1,13.54-48.58,23.79-9.54,3.32-23.75,7.27-44.47,3.8-.54-2.31-1.08-4.62-1.62-6.94,5.59-2.1,13.48-5.41,22.45-10.37,21.22-11.73,33.28-24.32,37.78-29.31,12.33-13.67,14.57-19.9,14.72-24.66.05-1.38.14-4.52-.8-8.12-2.51-6.11-7.46-15.86-16.93-25.03-13.13-12.7-27.61-17.17-34.48-18.81-2.7-.21-4.48.37-5.46.92-8.5,4.78-1.78,23.34-12.74,52.57-3.55,9.46-9.58,22.91-25.49,36.64-2.12-1.06-4.25-2.12-6.37-3.19,1.96-5.65,4.45-13.82,6.37-23.89,4.53-23.82,2.56-41.14,1.59-47.79-2.64-18.22-6-23.92-9.56-27.08-1-.89-3.25-2.87-6.46-4.42-3.39-.23-6.82-.36-10.27-.36-16.2,0-31.79,2.6-46.39,7.38-1.16,1.23-1.89,2.46-2.32,3.63-3.77,10.32,14.77,18.19,25.98,48.04,3.63,9.66,7.97,24.2,4.25,46.94-2.51.96-5.02,1.92-7.54,2.88-2.3-5.64-5.91-13.53-11.33-22.31-12.81-20.77-26.53-31.59-31.96-35.58-14.89-10.93-21.67-12.3-26.84-11.68-1.11.13-3.28.4-5.92,1.18-15.98,15.04-28.64,33.58-36.75,54.39.24,2.56.96,4.43,1.93,5.8,6.33,8.97,23.37-1.78,54.29,6.01,10.01,2.52,24.43,7.24,41,23.24-.64,2.61-1.29,5.22-1.93,7.83-5.94-1.32-14.48-2.85-24.79-3.4-24.37-1.3-41.08,3.81-47.45,6-17.47,6.01-22.45,10.8-24.89,15.41-1.52,2.87-3.46,7.04-3.86,15.67-.81,17.74,5.29,33.17,11.11,43.79,4.22,5.15,7.8,6.92,10.71,7.2,10.93,1.02,13.84-18.91,39.86-37.34,8.42-5.97,21.38-13.86,44.32-16.04,1.57,2.19,3.13,4.37,4.7,6.56-4.87,3.66-11.58,9.15-18.7,16.62-16.83,17.67-23.81,33.69-26.29,39.95-6.79,17.18-6.39,24.08-4.48,28.93.84,2.13,3.3,8.36,9.4,13.12,3.29,2.57,6.23,4.05,7.93,4.79,17.95,7.74,45.58,19.65,53.43,10.67,6.43-7.36-7.14-21.11-6.67-54.21.14-10.32,1.41-25.44,13.16-45.26,2.69.02,5.38.05,8.07.07.09,6.09.57,14.75,2.41,24.9,4.36,24.01,13.18,39.09,16.78,44.78,9.88,15.61,15.69,19.36,20.73,20.67,5.75,1.49,10.45,1.05,16.14.14,16.99-2.72,28.7-11.91,32.74-15.36,5.9-5.03,24.92-21.24,20.86-32.56-3.57-9.96-21.47-5.76-48.96-23-8.56-5.37-20.53-13.97-30.8-32.3,1.47-1.87,2.93-3.74,4.4-5.61,5.14,3.05,12.65,7.13,22.14,11.02,22.44,9.21,39.8,10.73,46.5,11.12,14.61.84,21.95.51,28.44-3.95,18.38-12.63,15.5-47.11,14.69-56.91Z"
                />
              </g>
              <g id="rodona1">
                <circle class="cls-7" cx="707.76" cy="504.96" r="44.6" />
                <circle class="cls-22" cx="707.76" cy="504.96" r="44.6" />
              </g>
              <g id="R.21">
                <circle class="cls-5" cx="852.75" cy="359.37" r="10.26" />
              </g>
              <g id="R.11">
                <circle class="cls-5" cx="562.21" cy="359.37" r="10.26" />
              </g>
              <g id="R.31">
                <circle class="cls-5" cx="562.21" cy="652.21" r="10.26" />
              </g>
              <g id="R.41">
                <circle class="cls-5" cx="852.75" cy="652.21" r="10.26" />
              </g>
            </g>
            <g>
              <rect
                class="cls-7"
                x="1108.72"
                y="100.34"
                width="57.26"
                height="785"
                rx="20.38"
                ry="20.38"
              />
              <rect
                class="cls-6"
                x="1128.54"
                y="136.69"
                width="17.62"
                height="712.29"
              />
            </g>
            <g>
              <rect
                class="cls-7"
                x="1041.55"
                y="100.34"
                width="40.74"
                height="785"
                rx="18.5"
                ry="18.5"
              />
              <rect
                class="cls-6"
                x="1055.65"
                y="136.69"
                width="12.54"
                height="712.29"
              />
            </g>
            <g>
              <rect
                class="cls-7"
                x="720.96"
                y="639.27"
                width="40.74"
                height="681"
                rx="18.5"
                ry="18.5"
                transform="translate(1721.11 238.44) rotate(90)"
              />
              <rect
                class="cls-6"
                x="735.07"
                y="670.81"
                width="12.54"
                height="617.93"
                transform="translate(1721.11 238.44) rotate(90)"
              />
            </g>
            <g>
              <rect
                class="cls-7"
                x="464.09"
                y="1023.82"
                width="40.74"
                height="167.38"
                rx="18.5"
                ry="18.5"
                transform="translate(1591.97 623.05) rotate(90)"
              />
              <rect
                class="cls-6"
                x="478.19"
                y="1031.57"
                width="12.54"
                height="151.88"
                transform="translate(1591.97 623.05) rotate(90)"
              />
            </g>
            <g>
              <rect
                class="cls-7"
                x="464.09"
                y="1116.32"
                width="40.74"
                height="167.38"
                rx="18.5"
                ry="18.5"
                transform="translate(1684.47 715.55) rotate(90)"
              />
              <rect
                class="cls-6"
                x="478.19"
                y="1124.07"
                width="12.54"
                height="151.88"
                transform="translate(1684.47 715.55) rotate(90)"
              />
            </g>
            <circle class="cls-7" cx="679.89" cy="1159.73" r="57.26" />
            <rect
              class="cls-7"
              x="785.37"
              y="1047.22"
              width="236.34"
              height="222.93"
              rx="36.1"
              ry="36.1"
            />
            <rect
              class="cls-6"
              x="311.71"
              y="158.19"
              width="66.07"
              height="66.07"
            />
            <rect
              class="cls-6"
              x="311.71"
              y="291.43"
              width="77.08"
              height="66.07"
            />
            <rect
              class="cls-6"
              x="311.71"
              y="416.97"
              width="77.08"
              height="66.07"
            />
            <g>
              <circle
                id="circle_board1"
                class="cls-6"
                cx="488.21"
                cy="382.94"
                r="24"
              />
              <circle
                id="circle_board2"
                class="cls-6"
                cx="488.21"
                cy="465.85"
                r="24"
              />
              <circle
                id="circle_board3"
                class="cls-6"
                cx="488.21"
                cy="548.76"
                r="24"
              />
              <circle
                id="circle_board4"
                class="cls-6"
                cx="488.21"
                cy="631.67"
                r="24"
              />
            </g>
            <ellipse
              class="cls-5"
              cx="27.68"
              cy="928.04"
              rx="18.68"
              ry="42.95"
            />
            <rect
              class="cls-7"
              x="23.83"
              y="885.1"
              width="142.05"
              height="85.89"
            />
            <rect
              class="cls-7"
              x="45.85"
              y="727.63"
              width="162.97"
              height="121.13"
            />
            <rect
              class="cls-7"
              x="70.08"
              y="602.09"
              width="107.92"
              height="104.61"
            />
            <path class="cls-4" d="M97.61,632.93h-27.53,27.53Z" />
            <path class="cls-4" d="M97.61,671.47h-27.53,27.53Z" />
            <g>
              <rect
                class="cls-7"
                x="46.95"
                y="436.92"
                width="96.9"
                height="106.81"
              />
              <line
                class="cls-111"
                x1="95.4"
                y1="402.78"
                x2="95.4"
                y2="449.03"
              />
              <line
                class="cls-111"
                x1="95.4"
                y1="578.97"
                x2="95.4"
                y2="532.72"
              />
              <line
                class="cls-111"
                x1="57.96"
                y1="571.71"
                x2="94.3"
                y2="571.16"
              />
            </g>
            <g>
              <rect
                class="cls-7"
                x="46.95"
                y="183.87"
                width="96.9"
                height="148.87"
              />
              <line
                class="cls-111"
                x1="95.4"
                y1="136.3"
                x2="95.4"
                y2="200.76"
              />
              <line
                class="cls-111"
                x1="57.96"
                y1="142.81"
                x2="94.3"
                y2="143.57"
              />
              <line
                class="cls-111"
                x1="95.4"
                y1="381.86"
                x2="95.4"
                y2="317.4"
              />
              <line
                class="cls-111"
                x1="57.96"
                y1="375.35"
                x2="94.3"
                y2="374.58"
              />
            </g>
          </g>
          <path
            id="light_board"
            class="cls-33"
            d="M73,1050.5h77c12.43,0,22.5,10.07,22.5,22.5v164c0,12.43,10.07,22.5,22.5,22.5h73c12.43,0,22.5-10.07,22.5-22.5v-319c0-12.43,10.07-22.5,22.5-22.5h613c12.43,0,22.5-10.07,22.5-22.5h0c0-12.43-10.07-22.5-22.5-22.5H313c-12.43,0-22.5-10.07-22.5-22.5v-1c0-12.43,10.07-22.5,22.5-22.5h612c12.43,0,22.5-10.07,22.5-22.5V245c0-12.43-10.07-22.5-22.5-22.5h-431c-12.43,0-22.5-10.07-22.5-22.5v-4c0-12.43,10.07-22.5,22.5-22.5h433c12.43,0,22.5-10.07,22.5-22.5v-21c0-12.43-10.07-22.5-22.5-22.5l-854.5,3"
          />
        </svg>