<svg
          id="optical_drive"
          class="item"
          data-name="Optical drive"
          xmlns="http://www.w3.org/2000/svg"
          viewBox="0 0 1200 1214"
        >
          
          <g id="disk_move">
            <rect
              class="cls-3"
              x="160.4"
              y="253.75"
              width="878.74"
              height="706.34"
            />
            <path
              class="cls-1"
              d="M599.77,267.52c-187.06,0-338.71,151.64-338.71,338.71s151.64,338.71,338.71,338.71,338.71-151.64,338.71-338.71-151.64-338.71-338.71-338.71ZM599.77,694.88c-48.96,0-88.65-39.69-88.65-88.65s39.69-88.65,88.65-88.65,88.65,39.69,88.65,88.65-39.69,88.65-88.65,88.65Z"
            />
            <path
              class="cls-1"
              d="M119.88,958.94h960.24c14.76,0,26.73,11.98,26.73,26.73v155.07H93.14v-155.07c0-14.76,11.98-26.73,26.73-26.73Z"
            />
          </g>
          <g>
            <rect
              class="cls-1"
              x="100.16"
              y="73.25"
              width="999.68"
              height="885"
              rx="37.92"
              ry="37.92"
            />
            <rect
              class="cls-2"
              x="167.89"
              y="263.13"
              width="29.92"
              height="526.01"
            />
            <rect
              class="cls-2"
              x="167.89"
              y="834.02"
              width="29.92"
              height="32.41"
            />
            <rect
              class="cls-2"
              x="167.89"
              y="188.34"
              width="29.92"
              height="32.41"
            />
            <rect
              class="cls-2"
              x="993.06"
              y="263.13"
              width="29.92"
              height="526.01"
            />
            <rect
              class="cls-2"
              x="993.06"
              y="834.02"
              width="29.92"
              height="32.41"
            />
            <rect
              class="cls-2"
              x="993.06"
              y="188.34"
              width="29.92"
              height="32.41"
            />
            <path
              class="cls-3"
              d="M600,196.65c-176.23,0-319.1,142.87-319.1,319.1s142.87,319.1,319.1,319.1,319.1-142.86,319.1-319.1-142.87-319.1-319.1-319.1ZM600,599.26c-46.12,0-83.51-37.39-83.51-83.51s37.39-83.51,83.51-83.51,83.51,37.39,83.51,83.51-37.39,83.51-83.51,83.51Z"
            />
          </g>
        </svg>