<svg
          id="power_supply"
          class="item"
          data-name="Power supply"
          xmlns="http://www.w3.org/2000/svg"
          viewBox="0 0 1200 717"
        >

          <rect
            class="cls-1"
            x="46"
            y="24"
            width="1112"
            height="668"
            rx="27.3"
            ry="27.3"
          />
          <g>
            <g>
              <rect
                class="cls-3"
                x="97.33"
                y="82.19"
                width="570.25"
                height="570.25"
                rx="24.51"
                ry="24.51"
              />
              <circle class="cls-2" cx="385.65" cy="363.1" r="271.35" />
              <path
                id="ventilador_power"
                class="cls-1"
                d="M638.18,340.26c-.92-11.07-2.71-20.15-4.15-26.34-2.73-5.85-6.05-8.73-9.34-10-15.75-6.03-33.02,23.42-84.01,41.13-16.51,5.73-41.07,12.58-76.9,6.58-.93-4-1.87-8-2.8-12,9.67-3.64,23.31-9.35,38.83-17.93,36.7-20.29,57.56-42.07,65.33-50.69,21.32-23.64,25.2-34.41,25.46-42.64.08-2.39.24-7.81-1.39-14.04-4.34-10.57-12.9-27.44-29.28-43.29-22.71-21.97-47.74-29.69-59.63-32.53-4.67-.37-7.76.65-9.45,1.6-14.7,8.26-3.08,40.37-22.04,90.91-6.14,16.36-16.56,39.63-44.08,63.36-3.67-1.84-7.35-3.67-11.02-5.51,3.38-9.77,7.7-23.9,11.02-41.32,7.84-41.2,4.42-71.16,2.75-82.64-4.56-31.51-10.37-41.37-16.53-46.83-1.73-1.54-5.62-4.96-11.17-7.64-5.87-.4-11.79-.62-17.76-.62-28.02,0-54.98,4.49-80.23,12.76-2.01,2.13-3.26,4.25-4.01,6.28-6.51,17.84,25.55,31.46,44.93,83.08,6.28,16.71,13.78,41.85,7.35,81.18-4.35,1.66-8.69,3.32-13.04,4.98-3.98-9.75-10.22-23.39-19.59-38.58-22.15-35.92-45.88-54.63-55.27-61.53-25.76-18.91-37.48-21.28-46.42-20.21-1.93.23-5.67.68-10.24,2.03-27.64,26.02-49.53,58.07-63.56,94.06.41,4.43,1.66,7.66,3.33,10.03,10.95,15.52,40.41-3.08,93.88,10.39,17.31,4.36,42.25,12.52,70.91,40.2-1.11,4.52-2.22,9.03-3.33,13.55-10.28-2.28-25.05-4.92-42.86-5.87-42.14-2.25-71.04,6.59-82.05,10.38-30.21,10.4-38.83,18.68-43.05,26.64-2.63,4.96-5.99,12.17-6.67,27.1-1.4,30.68,9.15,57.36,19.21,75.73,7.3,8.9,13.49,11.97,18.51,12.44,18.91,1.77,23.94-32.7,68.94-64.57,14.57-10.32,36.98-23.96,76.65-27.74,2.71,3.78,5.42,7.56,8.13,11.34-8.42,6.33-20.03,15.83-32.33,28.75-29.11,30.56-41.18,58.26-45.46,69.09-11.74,29.72-11.05,41.65-7.75,50.03,1.45,3.68,5.71,14.45,16.25,22.69,5.69,4.44,10.77,7.01,13.72,8.28,31.04,13.38,78.83,33.98,92.41,18.45,11.13-12.72-12.34-36.5-11.54-93.75.25-17.85,2.44-44,22.76-78.27,4.65.04,9.3.08,13.95.12.15,10.53.99,25.51,4.17,43.06,7.53,41.52,22.8,67.6,29.03,77.45,17.09,27,27.14,33.48,35.85,35.74,9.94,2.58,18.08,1.81,27.91.24,29.39-4.7,49.63-20.6,56.61-26.56,10.2-8.7,43.1-36.73,36.08-56.3-6.18-17.23-37.12-9.96-84.67-39.77-14.8-9.28-35.51-24.15-53.27-55.86,2.53-3.23,5.07-6.46,7.6-9.69,8.89,5.27,21.88,12.33,38.28,19.06,38.8,15.92,68.83,18.56,80.42,19.23,25.27,1.46,37.96.89,49.19-6.83,31.79-21.85,26.81-81.48,25.4-98.42Z"
              />
              <circle
                id="rodona_power"
                class="cls-3"
                cx="383.84"
                cy="361.81"
                r="77.14"
              />
              <circle
                id="R.2_power"
                class="cls-1"
                cx="634.57"
                cy="110.02"
                r="17.75"
              />
              <circle
                id="R.1_power"
                class="cls-1"
                cx="132.11"
                cy="110.02"
                r="17.75"
              />
              <circle
                id="R.3_power"
                class="cls-1"
                cx="132.11"
                cy="616.46"
                r="17.75"
              />
              <circle
                id="R.4_power"
                class="cls-1"
                cx="634.57"
                cy="616.46"
                r="17.75"
              />
            </g>
            <circle class="cls-12" cx="382.46" cy="367.32" r="217.92" />
            <circle class="cls-12" cx="382.46" cy="367.32" r="149.7" />
          </g>
          <g>
            <path
              class="cls-3"
              d="M1009.21,274.12h-169.48c-7.71,0-15.01-3.49-19.86-9.5l-39.7-49.23c-8.4-10.41-8.4-25.27,0-35.68l39.7-49.23c4.84-6.01,12.14-9.5,19.86-9.5h169.48c7.71,0,15.01,3.49,19.86,9.5l39.7,49.23c8.4,10.41,8.4,25.27,0,35.68l-39.7,49.23c-4.84,6.01-12.14,9.5-19.86,9.5Z"
            />
            <rect
              class="cls-2"
              x="841.89"
              y="136.13"
              width="165.17"
              height="122.87"
              rx="25.55"
              ry="25.55"
            />
            <g>
              <rect
                class="cls-1"
                x="917.68"
                y="150.48"
                width="13.58"
                height="38.28"
              />
              <g>
                <rect
                  class="cls-1"
                  x="946.7"
                  y="201.11"
                  width="13.58"
                  height="38.28"
                />
                <rect
                  class="cls-1"
                  x="888.66"
                  y="201.11"
                  width="13.58"
                  height="38.28"
                />
              </g>
            </g>
            <circle class="cls-2" cx="793.61" cy="198.03" r="11.73" />
            <circle class="cls-2" cx="1056.64" cy="198.03" r="11.73" />
          </g>
          <g>
            <rect class="cls-3" x="798.85" y="447" width="238.8" height="169" />
            <rect
              class="cls-321"
              x="821.5"
              y="466.75"
              width="193.49"
              height="129.81"
            />
            <circle
              id="supply_off"
              class="cls-13"
              cx="968.77"
              cy="531.81"
              r="25.11"
            />
            <line
              id="supply_on"
              class="cls-17"
              x1="843.24"
              y1="531.66"
              x2="899.57"
              y2="531.51"
            />
          </g>
        </svg>