<svg
          id="ram"
          class="item"
          data-name="Ram"
          xmlns="http://www.w3.org/2000/svg"
          viewBox="0 0 1200 307"
        >
         
          <path
            class="cls-1"
            d="M1165.49,138.66c.7,0,1.38.06,2.05.15V26H35.46v112.81c.67-.09,1.35-.15,2.05-.15,8.67,0,15.7,7.03,15.7,15.7s-7.03,15.7-15.7,15.7c-.7,0-1.38-.06-2.05-.15v24.89c.67-.09,1.35-.15,2.05-.15,8.67,0,15.7,7.03,15.7,15.7s-7.03,15.7-15.7,15.7c-.7,0-1.38-.06-2.05-.15v54.09h457.47v-30.04h16.39v30.04h658.22v-54.09c-.67.09-1.35.15-2.05.15-8.67,0-15.7-7.03-15.7-15.7s7.03-15.7,15.7-15.7c.7,0,1.38.06,2.05.15v-24.89c-.67.09-1.35.15-2.05.15-8.67,0-15.7-7.03-15.7-15.7s7.03-15.7,15.7-15.7Z"
          />
          <g>
            <rect
              class="cls-3"
              x="99.65"
              y="36.92"
              width="107.88"
              height="195.28"
            />
            <rect
              class="cls-3"
              x="221.18"
              y="36.92"
              width="107.88"
              height="195.28"
            />
            <rect
              class="cls-3"
              x="342.72"
              y="36.92"
              width="107.88"
              height="195.28"
            />
            <rect
              class="cls-3"
              x="464.26"
              y="36.92"
              width="107.88"
              height="195.28"
            />
            <rect
              class="cls-2"
              x="118.76"
              y="71.06"
              width="76.47"
              height="128.37"
            />
            <rect
              class="cls-2"
              x="237.57"
              y="71.06"
              width="76.47"
              height="128.37"
            />
            <rect
              class="cls-2"
              x="361.84"
              y="71.06"
              width="76.47"
              height="128.37"
            />
            <rect
              class="cls-2"
              x="480.65"
              y="71.06"
              width="76.47"
              height="128.37"
            />
            <rect
              class="cls-3"
              x="630.86"
              y="36.92"
              width="107.88"
              height="195.28"
            />
            <rect
              class="cls-3"
              x="752.4"
              y="36.92"
              width="107.88"
              height="195.28"
            />
            <rect
              class="cls-3"
              x="873.94"
              y="36.92"
              width="107.88"
              height="195.28"
            />
            <rect
              class="cls-3"
              x="995.47"
              y="36.92"
              width="107.88"
              height="195.28"
            />
            <rect
              class="cls-2"
              x="649.98"
              y="71.06"
              width="76.47"
              height="128.37"
            />
            <rect
              class="cls-2"
              x="768.78"
              y="71.06"
              width="76.47"
              height="128.37"
            />
            <rect
              class="cls-2"
              x="893.05"
              y="71.06"
              width="76.47"
              height="128.37"
            />
            <rect
              class="cls-2"
              x="1011.86"
              y="71.06"
              width="76.47"
              height="128.37"
            />
          </g>
          <circle class="cls-2 blink_ram" cx="55.95" cy="263.61" r="10.92" />
          <circle class="cls-2 blink_ram" cx="1145.69" cy="263.61" r="10.92" />
          <rect
            id="line_ram1"
            class="cls-2"
            x="77.8"
            y="260.88"
            width="0"
            height="13.66"
            fill="#fff"
          />
          <rect
            id="line_ram2"
            class="cls-2"
            x="520.25"
            y="260.88"
            width="0"
            height="13.66"
          />
        </svg>